<svg xmlns="http://www.w3.org/2000/svg" width="80" height="80" viewBox="0 0 21.167 21.167"><defs><linearGradient id="a"><stop offset="0" stop-color="#2f90fb"/><stop offset="1" stop-color="#1d7ee9"/></linearGradient></defs><path style="marker:none" d="M21.167 10.583a10.583 10.583 0 01-10.584 10.584A10.583 10.583 0 010 10.583 10.583 10.583 0 0110.583 0a10.583 10.583 0 0110.584 10.583z" fill="#4f85ce"/><path d="M8.835 6.402c-.69.031-1.287.2-1.769.68-.484.483-.65 1.082-.681 1.764-.02.426-.133 3.642.195 4.485a2.134 2.134 0 001.232 1.229c.268.104.574.174 1.023.195 3.75.17 5.141.077 5.728-1.424.104-.267.175-.573.195-1.02.172-3.761-.028-4.576-.681-5.23-.519-.516-1.129-.869-5.242-.679m.034 7.597c-.41-.019-.633-.087-.782-.145a1.378 1.378 0 01-.8-.797c-.25-.64-.167-3.684-.144-4.177.022-.482.12-.923.46-1.263.421-.42.965-.626 4.67-.46.484.023.926.12 1.267.46.422.42.63.968.46 4.66-.018.41-.087.632-.144.78-.382.977-1.259 1.113-4.987.942m3.446-5.664a.505.505 0 101.01-.001.505.505 0 00-1.01.001m-3.906 2.243a2.16 2.16 0 002.163 2.158 2.16 2.16 0 002.163-2.158 2.16 2.16 0 00-2.163-2.157 2.16 2.16 0 00-2.163 2.157m.759 0c0-.773.628-1.4 1.404-1.4.775 0 1.404.627 1.404 1.4 0 .774-.629 1.401-1.404 1.401a1.402 1.402 0 01-1.404-1.4" style="marker:none" fill="#f9fcff" fill-rule="evenodd" stroke-width=".625"/></svg>