<svg xmlns="http://www.w3.org/2000/svg" width="80" height="80" viewBox="0 0 21.167 21.167"><defs><linearGradient id="a"><stop offset="0" stop-color="#2f90fb"/><stop offset="1" stop-color="#1d7ee9"/></linearGradient></defs><path d="M21.167 10.583a10.583 10.583 0 01-10.584 10.584A10.583 10.583 0 010 10.583 10.583 10.583 0 0110.583 0a10.583 10.583 0 0110.584 10.583z" style="marker:none" fill="#4f85ce"/><path d="M9.367 12.147V8.753c1.205.567 2.138 1.115 3.241 1.705-.91.505-2.036 1.072-3.241 1.69m6.714-5.083a1.57 1.57 0 00-.939-.557c-1.108-.21-8.023-.211-9.131 0a1.608 1.608 0 00-.803.407c-.975.904-.67 5.756-.435 6.542.1.34.227.585.388.746.207.213.49.36.817.425.912.19 5.614.295 9.145.029.325-.057.613-.208.84-.43.901-.901.84-6.025.118-7.162" style="marker:none" fill="#f9fcff" fill-rule="evenodd" stroke-width=".437"/></svg>