<svg xmlns="http://www.w3.org/2000/svg" width="80" height="80" viewBox="0 0 21.167 21.167"><defs><linearGradient id="a"><stop offset="0" stop-color="#2f90fb"/><stop offset="1" stop-color="#1d7ee9"/></linearGradient></defs><g transform="translate(-60.325 -264.799)"><rect style="marker:none" width="21.167" height="21.167" x="60.325" y="264.799" ry="0" rx="0" fill="none"/><path d="M75.353 274.324h-8.89v3.792c0 .827.707 1.5 1.574 1.5h7.316zm-8.89-1.059h5.557v-.617c0-.827-.753-1.5-1.621-1.5h-3.936zm10.002 0v7.409h-8.428c-1.483 0-2.685-1.145-2.685-2.558v-8.026h5.14c1.483 0 2.639 1.145 2.639 2.558v.617zm-3.241 3.705c0-.293.248-.53.555-.53.307 0 .556.237.556.53 0 .292-.249.529-.556.529a.543.543 0 01-.555-.53z" fill="#4f4f4f" fill-rule="evenodd" stroke-width=".5"/></g></svg>