<svg xmlns="http://www.w3.org/2000/svg" width="80" height="80" viewBox="0 0 21.167 21.167"><defs><linearGradient id="a"><stop offset="0" stop-color="#2f90fb"/><stop offset="1" stop-color="#1d7ee9"/></linearGradient></defs><path style="marker:none" d="M21.167 10.583a10.583 10.583 0 01-10.584 10.584A10.583 10.583 0 010 10.583 10.583 10.583 0 0110.583 0a10.583 10.583 0 0110.584 10.583z" fill="#4f85ce"/><path d="M12.694 14.772c-.065-.026-.643-.437-1.285-.912l-1.167-.864-.201.195c-.111.107-.392.38-.624.608-.277.272-.462.431-.54.466-.164.075-.21.071-.21-.017 0-.117.133-2.144.147-2.234.01-.07.339-.376 2.198-2.05 2.282-2.056 2.291-2.065 2.095-2.088a.391.391 0 00-.154.02c-.044.015-1.28.786-2.746 1.712-1.466.927-2.686 1.685-2.71 1.685-.058 0-2.33-.722-2.45-.778-.11-.053-.196-.155-.196-.235 0-.09.106-.227.238-.308.065-.04 2.19-.873 4.723-1.85 4.967-1.916 4.753-1.842 4.936-1.718.152.104.195.187.205.396.008.169-.078.605-.783 3.924-.452 2.126-.815 3.776-.843 3.83a.78.78 0 01-.13.172c-.105.1-.322.12-.503.046z" style="marker:none" fill="#f9fcff"/></svg>