<svg xmlns="http://www.w3.org/2000/svg" width="80" height="80" viewBox="0 0 21.167 21.167"><defs><linearGradient id="a"><stop offset="0" stop-color="#2f90fb"/><stop offset="1" stop-color="#1d7ee9"/></linearGradient></defs><path d="M21.167 10.583a10.583 10.583 0 01-10.584 10.584A10.583 10.583 0 010 10.583 10.583 10.583 0 0110.583 0a10.583 10.583 0 0110.584 10.583z" style="marker:none" fill="#4f85ce"/><path d="M15.999 9.15c.085-.068.213-.004.213.103v4.496c0 .583-.473 1.056-1.056 1.056H6.01a1.056 1.056 0 01-1.055-1.056V9.255c0-.11.125-.171.213-.103.493.383 1.146.868 3.388 2.498.464.338 1.247 1.05 2.027 1.046.785.007 1.583-.721 2.03-1.046 2.242-1.63 2.893-2.118 3.386-2.5zm-5.416 2.84c.51.01 1.245-.642 1.614-.91 2.918-2.117 3.14-2.302 3.813-2.83a.526.526 0 00.202-.415v-.418c0-.582-.473-1.055-1.056-1.055H6.01c-.582 0-1.055.473-1.055 1.055v.418a.53.53 0 00.202.416c.673.525.895.712 3.813 2.83.369.267 1.103.918 1.613.91z" fill="#f9fcff"/></svg>