<svg xmlns="http://www.w3.org/2000/svg" xmlns:xlink="http://www.w3.org/1999/xlink" width="480.662" height="447.384" viewBox="0 0 127.175 118.37"><defs><linearGradient id="e"><stop offset="0" stop-color="#f7a399"/><stop offset="1" stop-color="#fbb2a6"/></linearGradient><linearGradient xlink:href="#a" id="i" gradientUnits="userSpaceOnUse" x1="83.121" y1="144.523" x2="62.808" y2="171.517" gradientTransform="rotate(4.978 102.8 134.849)"/><linearGradient xlink:href="#b" id="j" x1="436.786" y1="532.162" x2="325" y2="559.663" gradientUnits="userSpaceOnUse" gradientTransform="scale(.26458) rotate(4.978 388.539 509.665)"/><linearGradient id="b"><stop offset="0" stop-color="#2c48ac"/><stop offset="1" stop-color="#2364ce"/></linearGradient><linearGradient xlink:href="#a" id="k" x1="119.069" y1="149.868" x2="84.324" y2="173.922" gradientUnits="userSpaceOnUse" gradientTransform="rotate(4.978 102.8 134.849)"/><linearGradient xlink:href="#c" id="l" x1="109.213" y1="122.64" x2="119.637" y2="109.109" gradientUnits="userSpaceOnUse" gradientTransform="rotate(4.978 102.8 134.849)"/><linearGradient id="c"><stop offset="0" stop-color="#1bb0e1"/><stop offset="1" stop-color="#ccf2ff"/></linearGradient><linearGradient xlink:href="#c" id="m" gradientUnits="userSpaceOnUse" x1="148.535" y1="82.717" x2="104.436" y2="128.353" gradientTransform="rotate(4.978 102.8 134.849)"/><linearGradient xlink:href="#d" id="n" x1="441.858" y1="539.306" x2="483.358" y2="404.554" gradientUnits="userSpaceOnUse" gradientTransform="scale(.26458) rotate(4.978 388.539 509.665)"/><linearGradient id="d"><stop offset="0" stop-color="#fff"/><stop offset="1" stop-color="#ccf2ff"/></linearGradient><linearGradient xlink:href="#c" id="o" gradientUnits="userSpaceOnUse" x1="555" y1="359.663" x2="495.714" y2="544.663" gradientTransform="scale(.26458) rotate(4.978 388.539 509.665)"/><linearGradient xlink:href="#c" id="p" gradientUnits="userSpaceOnUse" x1="282.551" y1="526.323" x2="472.94" y2="513.322" gradientTransform="scale(.26458) rotate(4.978 388.539 509.665)"/><linearGradient xlink:href="#c" id="q" x1="124.481" y1="114.655" x2="126.118" y2="106.504" gradientUnits="userSpaceOnUse" gradientTransform="rotate(4.978 102.8 134.849)"/><linearGradient xlink:href="#e" id="r" gradientUnits="userSpaceOnUse" gradientTransform="matrix(.09556 .01653 -.01653 .09556 102.489 49.092)" x1="408.185" y1="523.022" x2="407.084" y2="548.32"/><linearGradient id="a"><stop offset="0" stop-color="#2364ce"/><stop offset="1" stop-color="#2b4cb1"/></linearGradient><linearGradient gradientTransform="matrix(.09556 .01653 -.01653 .09556 102.489 49.092)" xlink:href="#e" id="s" gradientUnits="userSpaceOnUse" x1="418.845" y1="414.126" x2="417.132" y2="440.518"/><linearGradient gradientTransform="matrix(.36116 .06248 -.06248 .36116 102.489 49.092)" xlink:href="#e" id="t" gradientUnits="userSpaceOnUse" x1="119.064" y1="116.664" x2="119.32" y2="121.373"/><linearGradient gradientTransform="matrix(.09556 .01653 -.01653 .09556 102.489 49.092)" xlink:href="#f" id="u" x1="345.619" y1="308.817" x2="377.099" y2="504.566" gradientUnits="userSpaceOnUse"/><linearGradient id="f"><stop offset="0" stop-color="#fff"/><stop offset="1" stop-color="#fbb2a6"/></linearGradient><linearGradient xlink:href="#g" id="v" x1="509.643" y1="529.127" x2="543.393" y2="461.448" gradientUnits="userSpaceOnUse" gradientTransform="scale(.26458) rotate(4.978 388.539 509.665)"/><linearGradient id="g"><stop offset="0" stop-color="#fbb2a6"/><stop offset="1" stop-color="#f7a399"/></linearGradient><linearGradient xlink:href="#c" id="w" x1="133.936" y1="133.712" x2="140.383" y2="113.787" gradientUnits="userSpaceOnUse" gradientTransform="rotate(4.978 102.8 134.849)"/><linearGradient xlink:href="#a" id="x" gradientUnits="userSpaceOnUse" x1="233.85" y1="605.7" x2="286.378" y2="622.368" gradientTransform="scale(.26458) rotate(4.978 388.539 509.665)"/><linearGradient xlink:href="#c" id="y" gradientUnits="userSpaceOnUse" x1="320.723" y1="608.226" x2="225.769" y2="593.579" gradientTransform="scale(.26458) rotate(4.978 388.539 509.665)"/><linearGradient xlink:href="#a" id="z" gradientUnits="userSpaceOnUse" x1="264.018" y1="600.377" x2="248.839" y2="598.859" gradientTransform="scale(.26458) rotate(4.978 388.539 509.665)"/><linearGradient xlink:href="#a" id="A" gradientUnits="userSpaceOnUse" x1="233.85" y1="605.7" x2="286.378" y2="622.368" gradientTransform="matrix(.26359 .02296 -.02296 .26359 18.566 9.26)"/><linearGradient xlink:href="#c" id="B" gradientUnits="userSpaceOnUse" x1="320.723" y1="608.226" x2="225.769" y2="593.579" gradientTransform="matrix(.26359 .02296 -.02296 .26359 18.566 9.26)"/><linearGradient xlink:href="#a" id="C" gradientUnits="userSpaceOnUse" x1="264.018" y1="600.377" x2="248.839" y2="598.859" gradientTransform="matrix(.26359 .02296 -.02296 .26359 18.566 9.26)"/><linearGradient id="h"><stop offset="0" stop-color="#2f90fb"/><stop offset="1" stop-color="#1d7ee9"/></linearGradient></defs><g transform="matrix(1.22502 0 0 1.22502 -299.597 -77.845)"><path d="M322.41 118.898c34.657 2.159 35.466-60.063-21.48-42.563" fill="none" stroke="#9ed7f1" stroke-width=".397" stroke-linecap="round" stroke-linejoin="round" stroke-dasharray="1.5875,1.5875"/><g transform="matrix(1.0524 0 0 1.0524 184.883 -30.323)" stroke-width=".95"><path d="M68.598 155.46s10.083-18.249 17.62-20.287c7.537-2.038 42.527 4.209 42.527 4.209s.629 7.755-6.202 9.267c-6.83 1.513-35.52-2.391-35.52-2.391l-12.267 12.45z" fill="url(#i)"/><path d="M115.972 137.32l-.004.003c-2.456 2.063-19.32 4.009-26.458 5.379-5.167.992-7.985 7.045-9.151 10.32l6.664-6.764s19.065 2.594 29.812 2.733c.831-.476 1.641-.98 2.422-1.517 6.173-4.241 5.773-7.346 3.599-9.085-1.97-.32-4.328-.689-6.884-1.069z" fill="url(#j)"/><path d="M74.968 173.075s11.69-18.434 17.889-22.215c6.199-3.78 25.935-10.161 25.935-10.161l9.953-1.317s2.242 8.7-7.064 13.438c-9.305 4.737-23.916 7.644-23.916 7.644l-16.639 15.859z" fill="url(#k)"/><path style="line-height:normal;font-variant-ligatures:normal;font-variant-position:normal;font-variant-caps:normal;font-variant-numeric:normal;font-variant-alternates:normal;font-feature-settings:normal;text-indent:0;text-align:start;text-decoration-line:none;text-decoration-style:solid;text-decoration-color:#000;text-transform:none;text-orientation:mixed;white-space:normal;shape-padding:0;isolation:auto;mix-blend-mode:normal;solid-color:#000;solid-opacity:1" d="M114.994 148.455c-3.943-.344-7.455 2.605-7.798 6.547a7.124 7.124 0 00.395 3.035c.985-.281 2-.584 3.04-.908a4.042 4.042 0 01-.271-1.851 4.002 4.002 0 014.359-3.661 3.999 3.999 0 013.493 2.794c1-.417 1.97-.854 2.895-1.307-.95-2.511-3.273-4.402-6.113-4.65z" color="#000" font-weight="400" font-family="sans-serif" overflow="visible" opacity=".2" fill="#fff"/><path style="line-height:normal;font-variant-ligatures:normal;font-variant-position:normal;font-variant-caps:normal;font-variant-numeric:normal;font-variant-alternates:normal;font-feature-settings:normal;text-indent:0;text-align:start;text-decoration-line:none;text-decoration-style:solid;text-decoration-color:#000;text-transform:none;text-orientation:mixed;white-space:normal;shape-padding:0;isolation:auto;mix-blend-mode:normal;solid-color:#000;solid-opacity:1" d="M123.97 142.848s-.103.196-.483.594c-.381.399-1.03.978-2.091 1.675-2.121 1.394-5.887 3.26-12.43 5.1-13.156 3.703-18.32 7.588-24.308 15.154a647.435 647.435 0 00-7.06 9.09l.474.251a642.927 642.927 0 017-9.013c5.951-7.52 10.939-11.285 24.037-14.97 6.583-1.853 10.398-3.738 12.578-5.17 1.09-.717 1.772-1.321 2.183-1.752.412-.43.566-.71.566-.71z" color="#000" font-weight="400" font-family="sans-serif" overflow="visible" fill="#2b4cb0"/><path d="M116.35 115.808s-3.859 6.85-6.647 8.82c-2.788 1.97-1.56 3.87-1.56 3.87l2.382.959s7.59-1.46 11.296-10.61z" fill="#fbb2a6"/><path d="M128.556 108.79s-9.223.857-13.566 7.712c0 0 6.456 2.934 7.458 3.453 1.002.52 1.908-4.387 3.597-6.634 1.69-2.246 8.327-5.939 2.511-4.532z" fill="url(#l)"/><path d="M105.692 135.548c5.205 4.669 13.996 8.931 22.378 12.436 0 0 9.2-18.54 11.398-19.831 2.198-1.292 7.507-9.776 6.422-12.541-1.084-2.765-4.079-7.582-13.47-7.405-9.77.184-13.073 7.205-14.656 11.051-4.94 9.784-7.268 6.342-12.072 16.29z" fill="#ccf2ff"/><path d="M114.074 117.439s3.795 3.313 9.12 3.777c5.325.464 10.406 2.283 7.89 7.295-2.516 5.013-5.31 11.678-7.327 10.965-2.017-.712-4.916-2.842-12.076-6.887z" opacity=".5" fill="url(#m)"/><path d="M134.896 108.283a24.007 24.007 0 00-2.477-.076c-7.335.138-11.024 4.13-13.077 7.74 2.027.96 5.186 1.37 6.844 1.809 10.489 4.928 3.07 13.474 12.63-1.784 1.714-2.829 2.199-4.789 1.91-6.124-1.503-.777-3.406-1.36-5.83-1.565z" opacity=".75" fill="url(#n)"/><path d="M140.177 116.383s-5.633 8.045-6.084 13.223c-.451 5.178-6.6 10.428-5.6 12.033a8.82 8.82 0 001.775 2.02c2.859-5.555 7.68-14.613 9.2-15.506 1.135-.667 3.096-3.255 4.582-5.98-1.944-3.234-3.873-5.79-3.873-5.79z" opacity=".75" fill="url(#o)"/><path d="M111.805 127.227c-1.632 1.456-3.239 2.87-5.292 6.706 1.139.537 2.663 1.345 3.903 2.337 2.261 1.81 14.505 7.714 16.392 8.921 1.886 1.208 3.974.11 1.066-1.899-2.908-2.008-8.077-3.644-8.412-8.51-.288-4.186-2.003-6.53-7.657-7.555z" fill="url(#p)"/><path style="line-height:normal;font-variant-ligatures:normal;font-variant-position:normal;font-variant-caps:normal;font-variant-numeric:normal;font-variant-alternates:normal;font-feature-settings:normal;text-indent:0;text-align:start;text-decoration-line:none;text-decoration-style:solid;text-decoration-color:#000;text-transform:none;text-orientation:mixed;white-space:normal;shape-padding:0;isolation:auto;mix-blend-mode:normal;solid-color:#000;solid-opacity:1" d="M130.007 133.053c-5.705-.497-10.767 3.756-11.264 9.46-.037.42-.045.833-.031 1.243a134.21 134.21 0 003.435 1.635 7.262 7.262 0 01-.242-2.602 7.202 7.202 0 017.826-6.572 7.217 7.217 0 013.714 1.413 192.4 192.4 0 011.537-2.785 10.316 10.316 0 00-4.975-1.792z" color="#000" font-weight="400" font-family="sans-serif" overflow="visible" opacity=".2" fill="#2461ca"/><path d="M68.598 155.46s-5.586-.595-8.228-1.994c-2.643-1.4-4.204 1.653-3.486 2.232.718.58 10.191 5.21 12.813 6.66 2.623 1.45 3.214 1.151 3.955.024.742-1.128 1.104-3.675 1.104-3.675z" fill="#ccf2ff"/><path d="M146.42 126.074s-3.191 12.655-5.354 13.587c-2.164.932-14.55 1.224-15.298 1.037-.747-.188-3.137-1.59-3.137-1.59s1.56-2.056 4.277-1.052c0 0 .925.312 1.567-.008.642-.32 7.798-2.133 8.687-3.274.888-1.141 3.342-10.016 3.342-10.016z" fill="#fbb2a6"/><path d="M129.323 96.068s-2.698-.29-1.73-3.536c.969-3.246 4.61-3.943 7.36-2.866s4.503 3.722 4.593 5.514c0 0 3.19 1.952 1.891 4.83-1.298 2.877-3.395 3.14-5.297 2.135-1.903-1.004-6.817-6.077-6.817-6.077z" fill="#20073d"/><path d="M129.507 89.986c-.872.545-1.566 1.38-1.913 2.546-.969 3.247 1.729 3.536 1.729 3.536s4.914 5.073 6.817 6.077c.46.243.93.41 1.398.487.652-.436 1.286-1.052 1.921-1.889 2.333-3.073-1.392-2.942-1.13-4.748.263-1.806-3.802-3.184-7.969-2.38-2.955.572-1.784-2.052-.853-3.629z" fill="#150329"/><path d="M136.37 108.463a19.483 19.483 0 00-1.106-.142l-1.813.395c-.76-.14-1.559-.28-2.379-.433-.772.068-1.501.18-2.188.333-.185.967-.721 2.249.47 3.162 1.887 1.448 6.518-.23 9.393-2.748a16.018 16.018 0 00-2.377-.567z" fill="url(#q)"/><path d="M129.974 104.743s.38 4.347.555 5.279c.175.932 2.81 1.548 5.764-1.515l-.215-6.122z" fill="#fbb2a6"/><path d="M136.078 102.385l-6.104 2.358s.222 2.53.405 4.143c.834-.484 4.633-2.819 5.723-5.826z" fill="url(#r)"/><path d="M130.78 105.946c2.277.254 5.461-1.46 6.476-4.95 0 0 1.542-.122 1.626-1.629.084-1.506-1.367-1.298-1.367-1.298s-.393 1.348-.717 1.38c-.324.033 1.591-3.776-2.32-4.381-3.91-.606-4.717.988-5.14.985-.425-.002-2.628 9.104 1.441 9.893z" fill="#fbb2a6"/><path d="M134.657 95.098a6.64 6.64 0 00-.179-.03c-1.837-.285-2.989-.084-3.738.209 1.651.07 5.347.42 5.366 2.142.023 2.198.668 2.031.678 2.028-.242-.094 1.482-3.668-2.127-4.349z" fill="url(#s)"/><path d="M137.808 98.431s.845.034.716.85c-.128.816-.678 1.17-1.211 1.291-.534.12.596-.485.495-2.14z" fill="url(#t)"/><path d="M131.443 95.067c-1.383.3-1.827.988-2.106.986-.424-.002-2.627 9.104 1.442 9.893 1.727.193 3.973-.746 5.401-2.73-1.378.775-4.027 1.593-5.167.433-.92-.936-.01-6.295.43-8.582z" opacity=".75" fill="url(#u)"/><path d="M140.504 124.758s-.577 2.081-1.27 4.353c1.687.38 3.68.908 3.94 1.334.456.75-.892 7.51-6.868 8.602-2.812.514-4.552 1.13-5.617 1.639 3.963-.13 9.059-.457 10.376-1.025 2.164-.931 5.355-13.588 5.355-13.588z" fill="url(#v)"/><path d="M145.121 113.885s4.275 5.766 2.344 15.038c0 0-8.229-2.512-9.56-2.847-1.331-.334 2.013-5.255 2.409-8.5.395-3.246.819-9.432 4.807-3.691z" fill="url(#w)"/><path style="line-height:normal;font-variant-ligatures:normal;font-variant-position:normal;font-variant-caps:normal;font-variant-numeric:normal;font-variant-alternates:normal;font-feature-settings:normal;text-indent:0;text-align:start;text-decoration-line:none;text-decoration-style:solid;text-decoration-color:#000;text-transform:none;text-orientation:mixed;white-space:normal;shape-padding:0;isolation:auto;mix-blend-mode:normal;solid-color:#000;solid-opacity:1" d="M89.38 134.795c-1.292.05-2.374.166-3.152.375.032.345.035.698.004 1.056a5.725 5.725 0 01-6.227 5.23 5.825 5.825 0 01-1.509-.338 56.765 56.765 0 00-2.093 2.532 8.847 8.847 0 003.326.969c4.893.426 9.24-3.225 9.667-8.118a8.887 8.887 0 00-.017-1.706z" color="#000" font-weight="400" font-family="sans-serif" overflow="visible" opacity=".2" fill="#fff"/><path style="line-height:normal;font-variant-ligatures:normal;font-variant-position:normal;font-variant-caps:normal;font-variant-numeric:normal;font-variant-alternates:normal;font-feature-settings:normal;text-indent:0;text-align:start;text-decoration-line:none;text-decoration-style:solid;text-decoration-color:#000;text-transform:none;text-orientation:mixed;white-space:normal;shape-padding:0;isolation:auto;mix-blend-mode:normal;solid-color:#000;solid-opacity:1" d="M144.877 113.547a6.818 6.818 0 00-2.651 4.818c-.31 3.562 2.214 6.754 5.686 7.332a21.85 21.85 0 00-.018-3.263 3.629 3.629 0 01-2.507-3.794c.079-.9.468-1.689 1.052-2.274-.675-1.604-1.318-2.481-1.318-2.481-.083-.12-.163-.228-.244-.338z" color="#000" font-weight="400" font-family="sans-serif" overflow="visible" opacity=".2" fill="#2461ca"/><rect width="12.584" height="1.618" x="167.175" y="64.509" ry=".623" transform="rotate(28.024)" rx=".623" fill="#e34570"/><rect width="25.848" height="19.136" x="120.343" y="51.968" ry=".669" transform="matrix(.88275 .46984 -.11247 .99366 0 0)" rx=".669" fill="#fc7799"/><circle cx="154.529" cy="57.14" r="1.4" transform="rotate(28.024)" fill="#fff"/><path d="M57.041 154.266c-.362.578-.443 1.201-.157 1.432.718.58 10.19 5.21 12.813 6.66 2.4 1.326 3.1 1.18 3.768.284z" fill="url(#x)"/><path d="M59.215 153.11a2.215 2.215 0 00-1.426.375c2.116 1.096 8.509 4.392 9.765 4.84 1.105.393 3.095.696 5.282-.63l-4.238-2.235s-5.586-.595-8.228-1.994a2.958 2.958 0 00-1.155-.357z" opacity=".5" fill="url(#y)"/><path d="M62.277 154.219a4.45 4.45 0 001.057.976c1.008.68 4.964 1.546 5.56 1.243.186-.096.34-.319.469-.575l-.765-.403s-3.543-.38-6.32-1.241z" fill="url(#z)"/><path style="line-height:normal;font-variant-ligatures:normal;font-variant-position:normal;font-variant-caps:normal;font-variant-numeric:normal;font-variant-alternates:normal;font-feature-settings:normal;text-indent:0;text-align:start;text-decoration-line:none;text-decoration-style:solid;text-decoration-color:#000;text-transform:none;text-orientation:mixed;white-space:normal;shape-padding:0;isolation:auto;mix-blend-mode:normal;solid-color:#000;solid-opacity:1" d="M71.149 156.805a4.779 4.779 0 00-4.917 3.75c.729.37 1.418.723 2.006 1.029a2.633 2.633 0 012.878-2.666 2.635 2.635 0 012.41 2.87c-.041.483-.209.922-.464 1.29.212-.165.397-.402.59-.696.71-1.08 1.064-3.41 1.093-3.606l-.096-.125z" color="#000" font-weight="400" font-family="sans-serif" overflow="visible" opacity=".2" fill="#2461ca"/><path d="M66.878 155.226l7.719 4.37c.106-.518.159-.889.159-.889l-6.158-3.247s-.71-.078-1.72-.234z" fill="#e34570"/><path d="M75.075 173.132s-5.585-.595-8.228-1.994c-2.642-1.399-4.203 1.653-3.485 2.233.717.579 10.19 5.209 12.813 6.659 2.622 1.45 3.214 1.151 3.955.024.741-1.128 1.103-3.675 1.103-3.675z" fill="#ccf2ff"/><path d="M63.519 171.938c-.362.579-.443 1.201-.157 1.432.718.58 10.19 5.21 12.813 6.66 2.399 1.327 3.098 1.18 3.768.284z" fill="url(#A)"/><path d="M65.692 170.782a2.215 2.215 0 00-1.425.375c2.115 1.096 8.508 4.392 9.764 4.84 1.105.393 3.096.696 5.282-.63l-4.237-2.235s-5.586-.595-8.229-1.994a2.958 2.958 0 00-1.155-.356z" opacity=".5" fill="url(#B)"/><path d="M68.755 171.891c.203.267.537.625 1.056.976 1.008.68 4.964 1.547 5.56 1.243.186-.096.34-.319.47-.575l-.765-.403s-3.543-.38-6.321-1.24z" fill="url(#C)"/><path d="M77.626 174.477a4.779 4.779 0 00-4.917 3.75c.73.37 1.418.723 2.006 1.029a2.633 2.633 0 012.878-2.666 2.635 2.635 0 012.411 2.87c-.042.484-.21.922-.465 1.29.212-.165.397-.401.59-.696.711-1.08 1.064-3.41 1.093-3.606-.03-.042-.064-.083-.096-.125z" style="line-height:normal;font-variant-ligatures:normal;font-variant-position:normal;font-variant-caps:normal;font-variant-numeric:normal;font-variant-alternates:normal;font-feature-settings:normal;text-indent:0;text-align:start;text-decoration-line:none;text-decoration-style:solid;text-decoration-color:#000;text-transform:none;text-orientation:mixed;white-space:normal;shape-padding:0;isolation:auto;mix-blend-mode:normal;solid-color:#000;solid-opacity:1" color="#000" font-weight="400" font-family="sans-serif" overflow="visible" opacity=".2" fill="#2461ca"/><path d="M73.356 172.898l7.718 4.37c.106-.518.16-.889.16-.889l-6.158-3.247s-.71-.078-1.72-.234z" fill="#e34570"/></g><path d="M270.982 100.833c-8.876 20.22 31.796 52.915 65.483 30.774" fill="none" stroke="#9ed7f1" stroke-width=".397" stroke-linecap="round" stroke-linejoin="round" stroke-dasharray="1.5875,1.5875"/><circle r="8.879" cy="97.992" cx="270.883" opacity=".3" fill="#9ed7f1"/><circle cx="270.883" cy="97.992" r="6.203" opacity=".3" fill="#9ed7f1"/><circle cx="339.5" cy="129.416" r="8.879" opacity=".3" fill="#9ed7f1"/><circle r="6.203" cy="129.416" cx="339.5" opacity=".3" fill="#9ed7f1"/><circle r="8.879" cy="75.372" cx="300.962" opacity=".3" fill="#9ed7f1"/><circle cx="300.962" cy="75.372" r="6.203" opacity=".3" fill="#9ed7f1"/><text y="98.657" x="266.966" style="line-height:1.25" font-weight="400" font-size="3.866" font-family="sans-serif" letter-spacing="0" word-spacing="0" fill="#2364ce" stroke-width=".102"><tspan style="-inkscape-font-specification:'Montserrat Bold'" y="98.657" x="266.966" font-weight="700" font-family="Montserrat">.svg</tspan></text><text style="line-height:1.25" x="335.859" y="130.081" font-weight="400" font-size="3.866" font-family="sans-serif" letter-spacing="0" word-spacing="0" fill="#2364ce" stroke-width=".102"><tspan x="335.859" y="130.081" style="-inkscape-font-specification:'Montserrat Bold'" font-weight="700" font-family="Montserrat">.xcf</tspan></text><text y="76.037" x="296.497" style="line-height:1.25" font-weight="400" font-size="3.866" font-family="sans-serif" letter-spacing="0" word-spacing="0" fill="#2364ce" stroke-width=".102"><tspan style="-inkscape-font-specification:'Montserrat Bold'" y="76.037" x="296.497" font-weight="700" font-family="Montserrat">.png</tspan></text></g></svg>