<svg xmlns="http://www.w3.org/2000/svg" xmlns:xlink="http://www.w3.org/1999/xlink" width="539.377" height="538.916" viewBox="0 0 142.71 142.588"><defs><linearGradient gradientTransform="matrix(.26458 0 0 .26458 161.49 487.094)" xlink:href="#b" id="t" gradientUnits="userSpaceOnUse" x1="243.303" y1="-23.716" x2="295.649" y2="609.303"/><linearGradient gradientTransform="matrix(.26458 0 0 .26458 161.49 487.094)" xlink:href="#a" id="D" gradientUnits="userSpaceOnUse" x1="282.195" y1="399.956" x2="307" y2="324.824"/><linearGradient gradientTransform="matrix(.26458 0 0 .26458 161.49 487.094)" xlink:href="#b" id="C" gradientUnits="userSpaceOnUse" x1="738.387" y1="96.679" x2="199.154" y2="839.965"/><linearGradient id="b"><stop offset="0" stop-color="#fff"/><stop offset="1" stop-color="#fff" stop-opacity="0"/></linearGradient><linearGradient gradientTransform="matrix(.26458 0 0 .26458 161.49 487.094)" xlink:href="#b" id="B" gradientUnits="userSpaceOnUse" x1="259.293" y1="259.518" x2="305.033" y2="861.717"/><linearGradient xlink:href="#c" id="A" gradientUnits="userSpaceOnUse" x1="-4.846" y1="199.492" x2="-77.422" y2="262.901" gradientTransform="translate(-31.273 524.424)"/><linearGradient id="c"><stop offset="0" stop-color="#ffc107"/><stop offset="1" stop-color="#ec9126"/></linearGradient><linearGradient gradientTransform="translate(161.49 487.094)" xlink:href="#d" id="z" x1="48.962" y1="264.179" x2="123.212" y2="125.364" gradientUnits="userSpaceOnUse"/><linearGradient id="d"><stop offset="0" stop-color="#fff300"/><stop offset="1" stop-color="#fff300" stop-opacity="0"/></linearGradient><linearGradient gradientTransform="matrix(.26458 0 0 .26458 161.49 487.094)" xlink:href="#c" id="y" gradientUnits="userSpaceOnUse" x1="284.316" y1="363.878" x2="307.702" y2="385.739"/><linearGradient gradientTransform="matrix(.26458 0 0 .26458 161.49 487.094)" xlink:href="#b" id="x" gradientUnits="userSpaceOnUse" x1="695.243" y1="1234.679" x2="519.095" y2="592.64"/><linearGradient gradientTransform="matrix(.26458 0 0 .26458 161.49 487.094)" xlink:href="#c" id="w" gradientUnits="userSpaceOnUse" x1="495.909" y1="799.523" x2="517.837" y2="823.968"/><linearGradient gradientTransform="matrix(.26458 0 0 .26458 161.49 487.094)" xlink:href="#b" id="v" x1="345.619" y1="308.817" x2="377.099" y2="504.566" gradientUnits="userSpaceOnUse"/><linearGradient gradientTransform="matrix(.26458 0 0 .26458 161.49 487.094)" xlink:href="#e" id="u" gradientUnits="userSpaceOnUse" x1="425.012" y1="693.949" x2="202.847" y2="586.679"/><linearGradient id="e"><stop offset="0" stop-color="#0a2f59"/><stop offset="1" stop-color="#025fc6" stop-opacity="0"/></linearGradient><linearGradient id="a"><stop offset="0" stop-color="#fd959e"/><stop offset="1" stop-color="#fd959e" stop-opacity="0"/></linearGradient><linearGradient gradientTransform="translate(161.49 487.094)" xlink:href="#a" id="s" gradientUnits="userSpaceOnUse" x1="118.797" y1="114.81" x2="119.32" y2="121.373"/><linearGradient gradientTransform="matrix(.26458 0 0 .26458 161.49 487.094)" xlink:href="#a" id="r" gradientUnits="userSpaceOnUse" x1="424.758" y1="395.271" x2="417.132" y2="440.518"/><linearGradient gradientTransform="matrix(.26458 0 0 .26458 161.49 487.094)" xlink:href="#a" id="q" x1="403.521" y1="502.769" x2="411.25" y2="541.773" gradientUnits="userSpaceOnUse"/><linearGradient gradientTransform="matrix(.26458 0 0 .26458 161.49 487.094)" xlink:href="#c" id="p" x1="429.943" y1="548.423" x2="429.763" y2="585.45" gradientUnits="userSpaceOnUse"/><linearGradient gradientTransform="matrix(.26458 0 0 .26458 161.49 487.094)" xlink:href="#b" id="o" x1="459.465" y1="101.297" x2="416.352" y2="773.477" gradientUnits="userSpaceOnUse"/><linearGradient xlink:href="#c" id="n" gradientUnits="userSpaceOnUse" x1="495.909" y1="799.523" x2="517.837" y2="823.968" gradientTransform="translate(161.49 487.712)"/><linearGradient gradientTransform="matrix(.26458 0 0 .26458 161.49 487.094)" xlink:href="#a" id="m" gradientUnits="userSpaceOnUse" x1="487.794" y1="886.288" x2="478.647" y2="806.684"/><linearGradient gradientTransform="translate(161.49 487.094)" xlink:href="#f" id="l" x1="140.967" y1="157.647" x2="153.88" y2="195.848" gradientUnits="userSpaceOnUse"/><linearGradient id="f"><stop offset="0" stop-color="#2f90fb"/><stop offset="1" stop-color="#1d7ee9"/></linearGradient><linearGradient gradientTransform="matrix(.26458 0 0 .26458 161.49 487.094)" xlink:href="#g" id="k" x1="357.396" y1="419.928" x2="376.207" y2="364.514" gradientUnits="userSpaceOnUse"/><linearGradient id="g"><stop offset="0" stop-color="#17091b"/><stop offset="1" stop-color="#17091b" stop-opacity="0"/></linearGradient><linearGradient gradientTransform="matrix(.26458 0 0 .26458 161.49 487.094)" xlink:href="#e" id="j" x1="504.886" y1="587.232" x2="532.616" y2="804.513" gradientUnits="userSpaceOnUse"/><linearGradient gradientTransform="translate(161.49 487.094)" xlink:href="#f" id="i" gradientUnits="userSpaceOnUse" x1="123.212" y1="158.454" x2="67.793" y2="113.258"/><linearGradient xlink:href="#f" id="h" gradientUnits="userSpaceOnUse" gradientTransform="matrix(1.76524 0 0 3.27072 53.038 5.267)" x1="123.212" y1="158.454" x2="67.793" y2="113.258"/></defs><g transform="matrix(1.00814 0 0 1.00814 -196.111 -576.272)" stroke-width=".992"><path style="marker:none" fill="url(#h)" d="M289.549 702.475h11.16v10.579h-11.16z"/><path d="M236.68 582.328s-.235-7.096 2.792-9.652c3.026-2.555 11.164-.269 8.911 4.54 0 0 2.489 6.053-5.111 7.533-7.6 1.48-6.591-2.421-6.591-2.421z" fill="#ffd0d4"/><path d="M266.78 633.91s-16.245 7.602-25.795-11.767c-9.55-19.37 2.287-37.394 2.287-37.394l-6.591-2.421s-24.02 18.197-20.977 44.258c3.044 26.061 20.735 35.192 29.105 36.904 0 0-11.985 38.996-19.023 46.225h71.525s14.838-21.496 6.468-49.65c-8.37-28.153-19.784-25.87-37-26.155z" fill="url(#i)"/><path d="M290.889 649.314s12.307 16.96 6.422 60.4c0 0 14.838-21.495 6.468-49.648a103.15 103.15 0 00-.749-2.412c-6.61-5.162-12.141-8.34-12.141-8.34z" fill="url(#j)"/><path d="M255.477 600.903s-7.387.478-6.293-8.7c1.094-9.18 10.558-12.746 18.452-11.129 7.894 1.617 13.837 7.912 14.913 12.687 0 0 9.483 3.766 7.33 12.106-2.151 8.34-7.666 10.021-13.248 8.205-5.583-1.816-21.154-13.169-21.154-13.169z" fill="#240d2b"/><path d="M253.145 584.468c-2.092 1.869-3.568 4.438-3.96 7.734-1.095 9.179 6.292 8.701 6.292 8.701s15.571 11.353 21.154 13.17c1.348.438 2.692.67 3.985.656 1.549-1.476 2.968-3.424 4.287-5.97 4.842-9.349-5.111-7.263-5.246-12.24-.134-4.977-11.703-6.793-22.53-2.69-7.681 2.91-5.753-4.688-3.982-9.36z" fill="url(#k)"/><path d="M289.41 698.814s-9.504.01-11.407 4.957c-1.902 4.945-.903 8.75 1.855 8.845 2.758.095 5.136-1.236 5.136-1.236s2.33.38 3.947-.286c1.617-.666 3.424-4.423 3.424-4.423l1.142-5.136z" fill="#ffd0d4"/><path d="M280 631.104s46.669-1.967 50.435 31.93c3.766 33.897-38.07 43.637-38.07 43.637l-2.956-7.857s13.586-8.743 14.124-26.902c.538-18.16-35.915-35.78-35.915-35.78z" fill="url(#l)"/><path d="M292.565 702.764c-1.22-.049-2.52 1.98-3.93 3.482-2.05 2.186-5.413 1.379-8.373.908-1.766-.281-2.738.599-3.237 1.355.014 2.448 1.059 4.046 2.833 4.107 2.759.095 5.136-1.237 5.136-1.237s2.33.381 3.947-.285c1.617-.666 3.424-4.422 3.424-4.422l.819-3.685a1.15 1.15 0 00-.619-.223z" fill="url(#m)"/><rect ry="1.969" y="708.843" x="266.051" height="4.21" width="32.748" rx="1.969" fill="url(#n)"/><path d="M266.78 633.91s-1.339.624-3.468 1.059c4.49 6.932 8.533 16.358 6.862 26.451-1.933 11.679-18.936 19.837-33.045 24.668-3.714 10.001-8.064 20.26-11.343 23.627h33.148c18.9-8.705 37.26-22.335 36.26-38.61-.795-12.924-6.781-26.54-12.158-36.386-4.77-.929-10.148-.708-16.256-.81z" fill="url(#o)"/><path d="M282.014 631.086c-1.284-.013-2.013.018-2.013.018l-7.036 2.857c-1.975-.02-4.035-.016-6.185-.051 0 0-1.702.791-4.321 1.213.063 2.308-.96 5.767 2.324 7.49 5.214 2.735 16.15-3.87 21.468-11.363a78.752 78.752 0 00-4.237-.164z" fill="url(#p)"/><path d="M261.263 623.923s3.044 11.508 3.948 13.934c.903 2.425 8.274 2.853 14.79-6.753l-3.424-16.36z" fill="#ffd0d4"/><path d="M276.577 614.744l-15.313 9.179s1.772 6.698 3.013 10.95c2.017-1.688 11.145-9.733 12.677-18.326z" fill="url(#q)"/><path d="M263.987 626.783c6.242-.377 14.005-6.464 15.11-16.319 0 0 4.09-1.046 3.614-5.136-.475-4.09-4.28-2.853-4.28-2.853s-.428 3.804-1.284 4.042c-.856.238 2.52-10.89-8.275-10.7-10.795.19-12.222 4.85-13.363 5.04-1.141.19-2.829 25.696 8.478 25.926z" fill="#ffd0d4"/><path d="M269.368 595.816a18.1 18.1 0 00-.496 0c-5.07.09-8.074 1.166-9.952 2.301 4.472-.577 14.571-1.356 15.421 3.264 1.085 5.898 2.74 5.15 2.766 5.138-.693-.14 2.279-10.55-7.74-10.703z" fill="url(#r)"/><path d="M279.388 603.311s2.287-.302 2.32 1.95c.034 2.254-1.278 3.464-2.656 4.036-1.379.572 1.378-1.58.336-5.986z" fill="url(#s)"/><path d="M226.65 592.568c-6.172 7.858-12.612 19.755-10.946 34.018 3.044 26.06 20.735 35.192 29.105 36.904 0 0 23.482-12.024-8.532-25.475-15.378-6.462-11.175-28.594-9.626-45.447z" fill="url(#t)"/><path d="M218.803 639.523c6.251 16.287 19.205 22.576 26.006 23.967 0 0 2.092-4.09.57-7.609 0 0-11.923 1.321-26.576-16.358z" fill="url(#u)"/><path d="M260.713 597.226c-3.58 1.45-4.454 3.506-5.204 3.631-1.142.19-2.829 25.696 8.477 25.927 4.731-.286 10.333-3.854 13.25-9.854-3.344 2.727-10.084 6.157-13.69 3.569-2.91-2.09-2.95-16.92-2.833-23.273z" opacity=".75" fill="url(#v)"/><path d="M293.044 695.782c-2.078 2.028-3.635 3.032-3.635 3.032l2.956 7.858s2.174-.511 5.47-1.686c-1.401-2.915-3.481-6.796-4.791-9.204z" fill="url(#w)"/><path d="M280.571 634.005l.052 9.629c10.41 6.824 23.23 17.454 22.91 28.278-.538 18.159-14.124 26.902-14.124 26.902l1.392 3.7c9.248-3.885 21.893-12.324 23.44-29.703 2.474-27.773-33.67-38.806-33.67-38.806z" opacity=".5" fill="url(#x)"/><path d="M236.681 582.327s-1.003.765-2.56 2.183c1.988.77 5.295 2.11 7.483 3.293.944-1.95 1.668-3.054 1.668-3.054z" fill="url(#y)"/><path d="M292.865 695.947s10.272-11.033 10.177-22.066c-.095-11.033-12.365-23.017-12.365-23.017s28.915 19.783 2.188 45.083zM245.276 651.554s.29 7.922-2.898 11.297c.87.274 1.686.486 2.427.638.811-2.161 1.996-6.655.471-11.935zM262.5 635.717s-1.142 5.326 2.568 6.753c3.71 1.427 11.098-1.536 14.665-4.532 0 0-5.867 5.53-11.717 5.673-5.85.143-6.562-4.161-5.516-7.894z" fill="#114f93"/><path d="M210.72 685.094l21.253-97.924h104.111l-61.068 124.288z" fill="url(#z)"/><rect transform="skewX(21.566) scale(1 .93)" ry="2.117" y="716.929" x="-69.633" height="49.799" width="67.264" rx="2.117" fill="url(#A)"/><path d="M225.9 666.74c-2.423 6.338-3.001 12.696 2.307 15.663 12.51 6.995 10.088 17.218.672 20.85-4.967 1.916-8.21 6.19-10.168 9.8h24.988c-.56-3.46.376-8.062 4.55-13.298 7.936-9.953-1.21-16.275-9.147-23.135-2.89-2.499-1.854-6.192.63-9.88z" fill="url(#B)"/><circle r="3.642" cy="689.667" cx="233.141" fill="#fff"/><path d="M201.912 676.184a37.63 37.63 0 00-4.17.307l3.514 8.89c2.549-.283 4.838.443 6.648 3.219 5.707 8.75 15.98 15.408 35.002 15.789 7.264.145 9.172 3.98 8.759 8.665h19.843c-1.01-12.374-15.938-23.034-29.743-19.888-15.028 3.424-19.023-2.283-26.251-11.795-3.163-4.16-8.547-5.263-13.602-5.187z" fill="url(#C)"/><path d="M242.894 571.617c-1.315.004-2.57.34-3.422 1.06-.92.777-1.539 1.976-1.954 3.266.555.346 1.349.757 2.487 1.16 2.687.951 6.635 1.046 7.752.095 1.118-.951.095.975-.975 1.57-1.07.594.69 1.854-.451 3.661-.358.566-.426 1.048-.31 1.394 4.163-2.216 2.362-6.607 2.362-6.607 1.62-3.456-2.129-5.61-5.49-5.599z" fill="url(#D)"/></g></svg>