<svg xmlns="http://www.w3.org/2000/svg" xmlns:xlink="http://www.w3.org/1999/xlink" width="432" height="446.689" viewBox="0 0 114.3 118.187"><defs><linearGradient xlink:href="#f" id="z" gradientUnits="userSpaceOnUse" gradientTransform="matrix(.26458 0 0 .26458 -13.605 -88.9)" x1="-3254.497" y1="4132.282" x2="-3430.884" y2="3327.85"/><linearGradient id="a"><stop offset="0" stop-color="#2f90fb"/><stop offset="1" stop-color="#1d7ee9"/></linearGradient><linearGradient id="b"><stop offset="0" stop-color="#5d87d5"/><stop offset="1" stop-color="#a9bfe6"/></linearGradient><linearGradient id="c"><stop offset="0" stop-color="#2c3b56"/><stop offset="1" stop-color="#041b48"/></linearGradient><linearGradient id="d"><stop offset="0" stop-color="#f13855"/><stop offset="1" stop-color="#ff714e"/></linearGradient><linearGradient id="e"><stop offset="0" stop-color="#b3d0ff"/><stop offset="1" stop-color="#8db7ff"/></linearGradient><linearGradient id="f"><stop offset="0" stop-color="#0038dd"/><stop offset="1" stop-color="#076aff"/></linearGradient><linearGradient id="h"><stop offset="0" stop-color="#ffa609"/><stop offset="1" stop-color="#ffba15"/></linearGradient><linearGradient id="i"><stop offset="0" stop-color="#23016e"/><stop offset="1" stop-color="#00003b"/></linearGradient><linearGradient id="k"><stop offset="0" stop-color="#eaf1fc"/><stop offset="1" stop-color="#a9bfe6"/></linearGradient><linearGradient id="l"><stop offset="0" stop-color="#a9bfe6"/><stop offset="1" stop-color="#eaf1fc"/></linearGradient><linearGradient id="m"><stop offset="0" stop-color="#83a4d6"/><stop offset="1" stop-color="#a9bfe6"/></linearGradient><linearGradient id="n"><stop offset="0" stop-color="#ff9209"/><stop offset="1" stop-color="#ffa609"/></linearGradient><linearGradient id="j"><stop offset="0" stop-color="#0e6fff"/><stop offset="1" stop-color="#095dda"/></linearGradient><linearGradient xlink:href="#b" id="p" gradientUnits="userSpaceOnUse" x1="220.281" y1="209.661" x2="218.455" y2="254.73" gradientTransform="translate(-28.679)"/><linearGradient xlink:href="#b" id="q" gradientUnits="userSpaceOnUse" x1="-148.487" y1="209.849" x2="-148.86" y2="248.909" gradientTransform="translate(-47.653)"/><linearGradient xlink:href="#b" id="r" gradientUnits="userSpaceOnUse" x1="220.281" y1="209.661" x2="218.455" y2="254.73" gradientTransform="translate(47.653)"/><linearGradient xlink:href="#c" id="s" x1="-224.319" y1="161.922" x2="-203.178" y2="221.042" gradientUnits="userSpaceOnUse" gradientTransform="translate(-47.653)"/><linearGradient xlink:href="#d" id="v" gradientUnits="userSpaceOnUse" gradientTransform="scale(-1 1) rotate(15 308.426 2211.48)" x1="-296.87" y1="358.071" x2="-296.987" y2="360.56"/><linearGradient xlink:href="#e" id="u" gradientUnits="userSpaceOnUse" gradientTransform="scale(-.26458 .26458) rotate(15 1165.706 8358.348)" x1="-1148.036" y1="1383.502" x2="-1128.125" y2="1373.859"/><linearGradient xlink:href="#d" id="y" gradientUnits="userSpaceOnUse" gradientTransform="matrix(-1 0 0 1 -527.542 -90.6)" x1="-296.87" y1="358.071" x2="-296.987" y2="360.56"/><linearGradient xlink:href="#e" id="x" gradientUnits="userSpaceOnUse" x1="-1148.036" y1="1383.502" x2="-1128.125" y2="1373.859" gradientTransform="matrix(-.26458 0 0 .26458 -527.542 -90.6)"/><linearGradient id="g"><stop offset="0" stop-color="#e59a12"/><stop offset="1" stop-color="#ffba15"/></linearGradient><linearGradient xlink:href="#g" id="A" gradientUnits="userSpaceOnUse" gradientTransform="scale(-.86772 .86772) rotate(54.334 37.456 799.322)" x1="-317.247" y1="264.845" x2="-321.08" y2="264.085"/><linearGradient xlink:href="#h" id="B" gradientUnits="userSpaceOnUse" gradientTransform="matrix(.26458 0 0 .26458 -.28 .187)" x1="-3612.199" y1="2365.771" x2="-3422.45" y2="2918.985"/><linearGradient xlink:href="#g" id="C" gradientUnits="userSpaceOnUse" gradientTransform="translate(-3.44)" x1="-990.045" y1="790.179" x2="-995.349" y2="698.256"/><linearGradient xlink:href="#b" id="D" gradientUnits="userSpaceOnUse" x1="-213.594" y1="209.849" x2="-218.336" y2="264.871" gradientTransform="translate(-47.653)"/><linearGradient xlink:href="#h" id="E" gradientUnits="userSpaceOnUse" gradientTransform="matrix(-1 0 0 1 -2018.203 -303.105)" x1="-1054.107" y1="910.377" x2="-1053.214" y2="925.198"/><linearGradient xlink:href="#d" id="F" gradientUnits="userSpaceOnUse" gradientTransform="matrix(-.26458 0 0 .26458 -533.983 -80.196)" x1="-1090.081" y1="901.423" x2="-1085.283" y2="910.388"/><linearGradient xlink:href="#d" id="G" gradientUnits="userSpaceOnUse" gradientTransform="matrix(-.26274 .03115 .03115 .26274 -558.976 -44.913)" x1="-1080.268" y1="830.109" x2="-1078.393" y2="846.627"/><linearGradient xlink:href="#i" id="H" gradientUnits="userSpaceOnUse" gradientTransform="scale(-1 1) rotate(6.762 659.6 4708.31)" x1="-298.206" y1="224.336" x2="-299.275" y2="219.091"/><linearGradient xlink:href="#i" id="I" gradientUnits="userSpaceOnUse" gradientTransform="scale(-1 1) rotate(6.762 659.6 4708.31)" x1="-287.167" y1="210.632" x2="-288.278" y2="213.42"/><linearGradient xlink:href="#d" id="J" gradientUnits="userSpaceOnUse" gradientTransform="scale(-1 1) rotate(23.782 174.388 1471.518)" x1="-277.387" y1="278.148" x2="-274.033" y2="276.259"/><linearGradient xlink:href="#j" id="K" gradientUnits="userSpaceOnUse" gradientTransform="translate(701.745 -95.795)" x1="-373.71" y1="290.262" x2="-355.255" y2="269.84"/><linearGradient xlink:href="#k" id="L" x1="-131.498" y1="201.882" x2="-230.977" y2="201.882" gradientUnits="userSpaceOnUse" gradientTransform="translate(-47.653)"/><linearGradient xlink:href="#l" id="M" gradientUnits="userSpaceOnUse" x1="-217.507" y1="199.433" x2="-247.425" y2="205.046" gradientTransform="translate(-47.653)"/><linearGradient xlink:href="#m" id="N" gradientUnits="userSpaceOnUse" x1="-220.13" y1="204.11" x2="-118.24" y2="204.11" gradientTransform="translate(-47.653)"/><linearGradient xlink:href="#m" id="O" gradientUnits="userSpaceOnUse" x1="-250.23" y1="203.999" x2="-216.628" y2="202.213" gradientTransform="translate(-47.653)"/><linearGradient xlink:href="#n" id="P" gradientUnits="userSpaceOnUse" gradientTransform="matrix(.26458 0 0 .26458 -.28 .187)" x1="-995.677" y1="1362.049" x2="-984.811" y2="1416.11"/><linearGradient xlink:href="#h" id="Q" gradientUnits="userSpaceOnUse" gradientTransform="matrix(.26458 0 0 .26458 -.28 .187)" x1="-950.941" y1="1361.779" x2="-975.489" y2="1409.188"/><linearGradient xlink:href="#j" id="R" gradientUnits="userSpaceOnUse" gradientTransform="translate(701.745 -95.795)" x1="-956.56" y1="469.82" x2="-965.921" y2="468.172"/><linearGradient xlink:href="#j" id="S" gradientUnits="userSpaceOnUse" gradientTransform="translate(701.745 -95.795)" x1="-961.908" y1="476.763" x2="-959.181" y2="470.962"/><linearGradient xlink:href="#d" id="t" gradientUnits="userSpaceOnUse" gradientTransform="scale(-1 1) rotate(15 308.426 2211.48)" x1="-296.87" y1="358.071" x2="-296.987" y2="360.56"/><linearGradient xlink:href="#d" id="w" gradientUnits="userSpaceOnUse" gradientTransform="matrix(-1 0 0 1 -527.542 -90.6)" x1="-296.87" y1="358.071" x2="-296.987" y2="360.56"/><clipPath clipPathUnits="userSpaceOnUse" id="o"><path style="marker:none" d="M-184.536 99.68a17.107 17.107 0 0117.145 17.145v133.834a8.554 8.554 0 01-8.573 8.572H-287.406a8.554 8.554 0 01-8.572-8.572V108.252a8.554 8.554 0 018.572-8.572h64.878z" fill="#e0e1e2" stroke-width=".317" stroke-linecap="round" stroke-linejoin="round" stroke-dasharray=".634987,.634987"/></clipPath></defs><path d="M105.202 20.82a9.078 9.078 0 019.098 9.098v71.02a4.54 4.54 0 01-4.549 4.549H50.614a4.539 4.539 0 01-4.55-4.55V25.369a4.539 4.539 0 014.55-4.548H85.04z" style="marker:none" fill="#d5d5d5"/><path style="marker:none" d="M82.55 0c7.036 0 12.7 5.664 12.7 12.7V111.837a6.336 6.336 0 01-6.35 6.35H6.35a6.336 6.336 0 01-6.35-6.35V6.35A6.336 6.336 0 016.35 0h48.058z" fill="#e0e1e2"/><g clip-path="url(#o)" transform="matrix(.74074 0 0 .74074 219.244 -73.837)" stroke-width="1.35"><path d="M-251.11 271.934c-5.798-.025-21.482.336-23.856 4.896h52.01c-2.921-5.613-26.005-4.864-26.005-4.864s-.811-.027-2.15-.032z" fill="#161046"/><path transform="skewX(4.944) scale(1 -.99628)" fill="url(#p)" d="M189.301 204.186h5.658v73.678h-5.658z"/><path transform="skewX(4.944) scale(1 .99628)" fill="url(#q)" d="M-199.283 204.186h5.658v73.678h-5.658z"/><path transform="skewX(4.944) scale(1 -.99628)" fill="url(#r)" d="M265.633 204.186h5.658v73.678h-5.658z"/><path fill="#161046" d="M-254.012 227.029h10.103v6.174h-10.103z"/><path fill="#161046" d="M-251.79 227.029h5.658v46.857h-5.658z"/><path d="M-255.147 156.594c-11.366-.818-25.704-.567-26.71 2.851-2.23 7.574-.955 28.882-.244 46.21.538 13.126 5.104 20.989 13.895 21.662 13.382 1.024 42.92 1.929 55.042-.942 4.362-.52 3.895-6.047.743-7.17-2.465-.88-20.276 3.104-22.029-11.976-1.736-14.94-3.321-45.04-5.2-47.537-1.025-1.363-7.72-2.539-15.497-3.098z" fill="url(#s)"/><path d="M-277.265 157.057c-2.551.514-4.268 1.286-4.592 2.388-2.23 7.573-.955 28.882-.244 46.209.538 13.127 5.104 20.99 13.894 21.663 13.383 1.024 42.922 1.929 55.043-.942 2.646-.315 3.512-2.472 3.084-4.371-13.121 2.36-40.322 1.499-53.01.527-8.79-.673-13.356-8.536-13.894-21.663-.646-15.75-1.758-34.788-.28-43.81z" fill="#161046"/><path d="M-199.62 266.343s3.896.472 6.86 1.856c2.966 1.385.928 3.072-2.12 3.958-3.05.886-6.93-.564-8.234-1.425-1.303-.862-.956-3.514-.956-3.514z" fill="#8db7ff"/><path d="M-200.329 262.694l.71 3.65s1.025.483 2.096.88c1.07.398-.827 1.347-3.21 1.325-2.381-.022-3.337-1.331-3.337-1.331l-1.327-3.362z" fill="url(#t)"/><path d="M-204.084 267.392c.209.122.489.419.909.918 1.116 1.326 3.118 1.309 5.19 1.687 2.073.378 5.307-.592 4.769-1.502-.173-.293-.669-.64-1.262-.976.584.197 1.168.423 1.719.68 2.965 1.385.927 3.072-2.121 3.958-3.049.886-6.931-.564-8.234-1.425-1.17-.774-1.015-2.896-.97-3.34z" fill="url(#u)"/><path d="M-204.07 267.218l4.45-.874.426.061c1.026.345 2.89.834 1.805 1.572-.814.553-4.54 1.52-6.704-.475l.023-.284z" fill="#6f9cfe"/><path d="M-200.329 262.694l.71 3.65s1.025.483 2.096.88c1.07.398-.827 1.347-3.21 1.325-2.381-.022-3.337-1.331-3.337-1.331l-1.327-3.362z" fill="url(#v)"/><path d="M-204.04 268.968c1.012 1.097 4.226 3.311 8.316 2.43 3.348-.722 3.952-1.902 4.032-2.5 1.203 1.216-.638 2.518-3.188 3.26-3.049.885-6.931-.565-8.234-1.426-.564-.373-.818-1.081-.926-1.764z" fill="#6f9cfe"/><path d="M-227.43 270.183s3.64 1.463 6.146 3.568.1 3.207-3.074 3.274c-3.174.067-6.548-2.339-7.584-3.508-1.035-1.17-.014-3.642-.014-3.642z" fill="#8db7ff"/><path d="M-227.17 266.474l-.26 3.709s.865.732 1.796 1.393c.931.662-1.147 1.087-3.442.45-2.295-.639-2.88-2.15-2.88-2.15l-.41-3.591z" fill="url(#w)"/><path d="M-232.014 270.04c.17.172.364.53.64 1.122.735 1.57 2.673 2.07 4.577 2.973 1.905.902 5.279.802 4.995-.217-.091-.327-.48-.79-.966-1.269.513.342 1.018.71 1.484 1.102 2.505 2.105.1 3.207-3.074 3.274-3.173.067-6.548-2.339-7.584-3.508-.93-1.05-.23-3.06-.072-3.477z" fill="url(#x)"/><path d="M-231.956 269.875l4.525.308.396.17c.901.598 2.576 1.553 1.336 1.985-.929.324-4.778.293-6.352-2.193l.095-.27z" fill="#6f9cfe"/><path d="M-227.17 266.474l-.26 3.709s.865.732 1.796 1.393c.931.662-1.147 1.087-3.442.45-2.295-.639-2.88-2.15-2.88-2.15l-.41-3.591z" fill="url(#y)"/><path d="M-232.38 271.573c.694 1.322 3.225 4.293 7.404 4.5 3.421.17 4.31-.814 4.542-1.372.847 1.487-1.268 2.268-3.924 2.324-3.173.067-6.548-2.339-7.584-3.508-.448-.506-.51-1.256-.437-1.944z" fill="#6f9cfe"/><path d="M-258.916 202.69s-6.39 12.359.756 16.325c7.145 3.967 36.863 4.094 36.583 6.413-.28 2.32 15.036 38.75 15.036 38.75l8.285-.106s-9.53-37.614-12.922-47.269c-2.873-8.176-42.198-9.644-42.198-9.644z" fill="#0038dd"/><path d="M-263.626 207.101s-2.974 13.592 4.955 15.574c7.929 1.983 25.017 3.238 25.347 5.55.33 2.313-.133 40.12-.133 40.12h7.07s8.072-40.78 6.916-49.37c-1.156-8.589-38.263-11.29-38.263-11.29z" fill="#076aff"/><path d="M-998.102 811.186c1.222 13.231 6.121 26.84 20.448 30.421 29.966 7.492 94.55 12.239 95.799 20.979 1.248 8.74-.502 151.635-.502 151.635h13.705c3.113-27.126 13.956-126.42 9.652-158.701-5-37.5-67.5-31-108.5-34.5-15.456-1.32-24.868-5.338-30.602-9.834z" transform="scale(.26458)" fill="url(#z)"/><path d="M-235.96 162.23s10.664 3.742 11.74 13.33c1.075 9.589.841 14.22.841 14.22l-7.81-.141z" fill="url(#A)"/><path d="M-251.73 159.73s-4.3-.664-12.384 3.144c-8.085 3.809-7.737 13.29-8.067 17.4-.331 4.111-1.409 12.689-1.707 16.705-.277 3.733 3.036 3.584 4.45 3.666 2.127.123 4.801.028 4.801.028s-.473 2.05-.54 3.987c-.066 1.938-.066 4.477-.066 4.477s8.285 2.339 14.766.802c6.482-1.537 20.18 1.069 21.516.133 1.336-.935-1.507-5.364 1.044-11.884 2.552-6.52-.814-17.651-1.286-23.415-.473-5.764-1.409-6.867-2.495-8.78-.828-1.46-3.344-4.848-10.46-5.784-7.116-.935-9.571-.48-9.571-.48z" fill="#ffba15"/><path d="M-891.857 649.783c-1.62.002-3.164.013-4.579.035-11.313.177-6.564 13.202-11.064 41.702s-12.5 21-34.5 19.5-14.5-22-15-40.5-26.125-14.25-26.125-14.25.6.973.246 6.453c-.353 5.48-2.386 28.108-3.8 36.593-1.415 8.486-3.624 13.7-3.89 20.24-.265 6.541 3.801 7.073 14.231 6.1 10.43-.972 9.9-.443 18.297-.531 8.397-.088 29.521 2.564 29.521 2.564l-1.23 12.83-14 17.25-56.75-.25-.72.962 1.017-.03s-1.787 7.745-2.04 15.069c-.252 7.323-.251 16.92-.251 16.92s12.801 3.595 28.426 4.685c2.932-2.283 5.802-4.84 8.568-7.605 15-15 46-2 71.5-4.5a355.766 355.766 0 0129.123-1.641c-.996-7.874-1.785-18.914 3.461-32.32 9.643-24.643-3.08-66.715-4.865-88.5-.331-4.04-.722-7.47-1.166-10.43-2.52-.065-14.2-.361-24.41-.346z" transform="scale(.26458)" fill="url(#B)"/><path d="M-265.315 209.15s2.584.655 5.157 1.006c2.572.35 5.554.386 7.518.152 1.965-.234 2.806-.62 4.537-.737 1.73-.117 5.963-.199 10.15.152 4.186.35 6.174.515 7.81.515 1.638 0 1.614-.585 1.52-1.848" fill="none" stroke="#042a9b" stroke-width=".714" stroke-linecap="round" stroke-linejoin="round"/><path d="M-1024.223 666.438c-1.297.012-2.499.206-3.527.453-.504 5.627-.66 10.658-.967 14.463-1.25 15.535-5.321 47.954-6.449 63.132-1.048 14.111 11.472 13.549 16.82 13.858 8.036.464 18.143.107 18.143.107s-.302 1.418-.654 3.328l3.357.24s68.5-1.5 68-12.5-59.5-9-75.5-9-5.5-11.5-5-47.5c.313-22.5-7.968-26.64-14.223-26.581z" transform="scale(.26458)" fill="url(#C)"/><path transform="skewX(4.944) scale(1 .99628)" fill="url(#D)" d="M-263.841 204.186h5.658v73.678h-5.658z"/><path d="M-943.416 603.281a88.183 88.183 0 00-3.307.055c-.335.011-.63.027-.927.041-.577.028-1.116.057-1.55.09-.18.014-.382.025-.538.039a33.13 33.13 0 00-1.227.127h-.002c-.303.04-.45.068-.45.068s-.254-.039-.759-.08c-.251-.02-.566-.04-.941-.056h-.002a34.691 34.691 0 00-1.315-.032c-2.501-.011-6.543.205-12.064 1.243a99.865 99.865 0 00-7.332 1.677c-1.34.358-2.736.758-4.192 1.205-1.455.448-2.968.942-4.539 1.489a146.076 146.076 0 00-4.388 1.617c-1.005.386-2.015.777-3.06 1.205a164.378 164.378 0 00-5.395 2.318c-.927.417-1.868.852-2.823 1.301-7.465 3.517-13.017 8.318-17.18 13.785 47.018-24.365 83.118-14.515 83.118-14.515 19.785-1.17 36.615.978 49.006 3.44a42.825 42.825 0 00-3.084-2.444c-.288-.207-.603-.412-.905-.617-.418-.284-.84-.568-1.285-.848a45.196 45.196 0 00-1.468-.9l-.047-.03c-.003 0-.005-.003-.008-.004-7.453-3.674-15.929-6.678-24.856-7.894l-.306-.045a333.704 333.704 0 00-9.276-1.094h-.002a253.25 253.25 0 00-7.72-.682 204.36 204.36 0 00-3.311-.213 173.626 173.626 0 00-2.957-.14 133.602 133.602 0 00-4.908-.106z" transform="scale(.26458)" fill="url(#E)"/><path d="M-249.612 159.618c.564.001 1.253.02 2.081.065.552.031 1.167.074 1.847.134a82.7 82.7 0 013.526.392c.223.03.444.063.663.102.083.014.164.032.246.048.144.027.288.054.43.085l.028.007a17.275 17.275 0 011.273.332c.612 3.224.59 6.125-3.298 6.578-4.372.51-9.259-3.351-10.592-7.09-.045-.207-.073-.373-.106-.55 1.18-.085 1.785.008 1.785.008s.038-.007.12-.017c.242-.032.87-.095 1.997-.093z" fill="#fff"/><path d="M-249.612 159.618c.564.001 1.253.02 2.081.065.552.031 1.167.074 1.847.134a82.7 82.7 0 013.526.392c.223.03.444.063.663.102.083.014.164.032.246.048.144.027.288.054.43.085l.028.007c.211.047.421.097.63.152.085.022.17.048.254.071.35 1.981.305 4.683-1.934 5.257-4.338 1.133-8.727-2.106-10.72-5.94a1.56 1.56 0 01-.194-.304c.678-.01 1.026.042 1.026.042s.038-.007.12-.017c.242-.032.87-.096 1.997-.093z" fill="#076aff"/><path d="M-249.612 159.618c.564.001 1.253.02 2.081.065.552.031 1.167.074 1.847.134a82.7 82.7 0 013.526.392c.223.03.444.063.663.102.083.014.164.032.246.048.144.027.288.054.43.085l.028.007c.21.047.418.097.624.15.215 2.076-.216 4.782-2.403 4.916-3.839.758-7.707-2.365-9.56-5.82.256.014.4.032.4.032s.04-.007.12-.017c.243-.032.87-.096 1.998-.093z" fill="#0038dd"/><path d="M-239.398 157.178l-1.559 6.898s-.236 1.937-4.205 1.04c-3.968-.898-6.567-5.387-6.567-5.387l1.04-11.056z" fill="#ff714e"/><path d="M-234.757 143.714s3.037-.122 4.188-5.278c1.152-5.155-2.508-10.191-8.048-10.764-8.59-.887-12.4 1.925-12.46 4.423 0 0-2.405-1.057-3.542 1.612-1.138 2.669-.372 6.96.119 9.127.49 2.166 13.55 5.343 19.743.88z" fill="#00003b"/><path d="M-247.239 151.272l7.841 5.906-1.442 6.38c-8.217-1.497-9.902-7.799-10.239-10.746l.145-1.54z" fill="url(#F)"/><path d="M-234.189 144.015s-.08 7.828-1.458 10.897c-1.379 3.07-6.482 5.255-11.077 2.346-4.912-3.111-5.515-7.684-5.626-10.87 0 0-3.644-.164-3.365-3.35.278-3.185 3.462-1.153 4.01.658l.739-5.247c5.762-1.39 11.625-.183 16.173 3.136 0 0 .412.092.604 2.43z" fill="#ff714e"/><path d="M-248.803 138.048c5.042-.654 10.025.631 14.003 3.532-.167.48-.466 1.013-.941 1.61 0 0-3.579.519-5.2-.716-1.621-1.235-1.069.816-3.866-.303-2.797-1.12-4.175-3.312-4.399-.787-.224 2.524.16 4.93-1.51 4.523l-.42-6.247.15-1.075.152-.166a20.43 20.43 0 012.03-.37z" fill="url(#G)"/><path d="M-234.212 143.612s-4.283.493-7.56-3.133c0 0-1.316 1.773-3.858.272-2.543-1.502-4.437-3.165-4.545-.832-.108 2.334-.541 5.988-.541 5.988s-.872-.669-.99-2.21c-.116-1.543-.306-6.178-.306-6.178l11.064-2.857 6.623 4.205z" fill="#00003b"/><path d="M-233.134 139.903s-.129 4.019-3.189 2.33c-3.06-1.69-4.768-4.179-5.934-3.233-1.166.945-3.34.766-5.233-.725-1.893-1.492-2.286-.84-2.899-.33-.612.51-1.412-3.398 3.47-1.656 4.884 1.742 3.97-.571 6.624.527 2.653 1.098 5.375 4.476 4.633 1.906-.742-2.57 3.056-2.885 2.528 1.18z" fill="url(#H)"/><path d="M-242.971 128.15s-5.192-.09-5.887 2.28c-.694 2.37-.994 3.246-2.375 2.67-1.38-.576-2.715-1.057-2.94 1.593-.223 2.651.084 3.254 1.155 1.512 1.072-1.742.664-2.064 2.825-1.714 2.161.349 2.911-.985 3.33-2.851.417-1.866 1.37-2.35 3.176-2.429 1.808-.08 3.064-.834.716-1.06z" fill="url(#I)"/><path d="M-253.115 143.466s-1.11-1.13-1.344-.126c-.234 1.003 1.134 1.766 1.134 1.766M-234.221 143.497s.868 12.208-4.45 14.313" fill="none" stroke="#de1a38" stroke-width=".714" stroke-linecap="round" stroke-linejoin="round"/><path d="M-241.826 198.27s-1.53 2.739-4.763 1.376c-3.234-1.363-4.877-.64-4.877-.64l.047-.536c.968-1.92 1.942-3.836 4.176-5.17l1.482-.68s2.304-.395 5.173 2.368c2.87 2.762-1.238 3.282-1.238 3.282z" fill="url(#J)"/><path transform="skewX(-14.056) scale(1 .97006)" fill="url(#K)" d="M-192.517 178.23h39.876v26.638h-39.876z"/><circle transform="scale(-1 1) rotate(.38)" r="2.599" cy="184.535" cx="218.393" fill="#fff"/><path d="M-216.827 172.893l14.644 24.98.903-3.608-12.53-21.372zm4.36 0l11.589 19.769 1.706-6.815-7.594-12.954zm-24.889 6.195l-1.706 6.815 7.522 12.83h5.7zm-2.107 8.418l-.903 3.608 4.465 7.62h3.02z" opacity=".1" fill="#fff"/><path fill="#0038dd" d="M-242.274 198.733h39.876v1.785h-39.876z"/><path fill="#042a9b" d="M-242.274 198.733h-8.978v1.785h8.978z"/><path fill="url(#L)" d="M-287.164 200.519h125.379v2.908h-125.379z"/><path fill="url(#M)" d="M-301.009 200.519h36.778v2.908h-36.778z"/><path fill="url(#N)" d="M-287.164 203.427h125.379v1.589h-125.379z"/><path fill="url(#O)" d="M-301.009 203.427h36.778v1.589h-36.778z"/><path d="M-245.761 192.62s-9.297-1.321-11.877-.726c-2.58.596-5.226.331-4.3-2.646.927-2.976 1.853-10.318 1.919-12.633.066-2.316-.133-2.91-.133-2.91M-251.253 200.519h-18.787s-4.432.9-3.903-3.83c.53-4.729.628-6.35.628-6.35" fill="none" stroke="#ce8605" stroke-width=".714" stroke-linecap="round" stroke-linejoin="round"/><g transform="matrix(-1.33414 0 0 1.33414 -526.02 -308.83)"><path d="M-262.285 377.456s-2.044-1.836-1.032-4.08c1.013-2.245 2.622-1.882 1.81-4.13-.81-2.249-.603-2.63.975-3.712 1.577-1.08.36-1.953.711-3.264.352-1.31 2.289-2.178 2.985-.068.697 2.11 1.008 3.915.08 4.78-.927.864-.912 1.081-.271 2 .64.92.771 2.113.232 2.79-.54.676.534.975.612 1.74.078.765-.416 1.847-1.278 2.347-.862.501-4.824 1.597-4.824 1.597z" fill="#ff7309" paint-order="stroke markers fill"/><path d="M-261.483 375.852s-2.607-.868-2.574-3.33c.033-2.462 1.654-2.771.013-4.51-1.64-1.738-1.603-2.17-.587-3.791 1.015-1.62-.45-1.935-.65-3.277-.2-1.343 1.23-2.91 2.71-1.253 1.48 1.657 2.485 3.188 1.98 4.35-.505 1.163-.405 1.356.55 1.944.954.587 1.55 1.63 1.324 2.465-.224.835.88.68 1.256 1.351.377.671.356 1.86-.235 2.663-.59.803-3.787 3.388-3.787 3.388z" fill="url(#P)" paint-order="stroke markers fill"/><path d="M-260.713 374.344s-1.222-1.165-.99-2.653c.232-1.49.704-2.84-.256-4.316-.96-1.477-1.312-2.413-.26-1.23 1.053 1.183 1.904 2.75 1.736 4.463-.169 1.712.648 2.723.933 2.916.284.193-1.163.82-1.163.82z" fill="#ff7309" paint-order="stroke markers fill"/><path d="M-259.717 373.446s-1.44-2.34.165-4.205c1.607-1.867 3.048-1.063 2.906-3.45-.142-2.385.166-2.692 1.985-3.283 1.819-.59.897-1.772 1.606-2.93.709-1.157 2.811-1.44 2.882.78.07 2.22-.142 4.04-1.276 4.607-1.134.567-1.18.78-.826 1.842.354 1.064.141 2.245-.567 2.74-.71.497.236 1.087.094 1.843s-.921 1.654-1.89 1.89c-.968.237-5.079.166-5.079.166z" fill="url(#Q)" paint-order="stroke markers fill"/><path d="M-258.158 372.784s-.189-1.677.945-2.67c1.134-.991 2.363-1.724 2.575-3.472.213-1.748.544-2.693.59-1.11.048 1.583-.306 3.33-1.535 4.536-1.228 1.204-1.252 2.504-1.157 2.834.094.331-1.418-.118-1.418-.118z" fill="#ff9209" paint-order="stroke markers fill"/><rect width="11.994" height="1.904" x="-265.111" y="372.671" ry="0" fill="url(#R)"/><path d="M-264.254 374.582l1.57 7.198H-255.544l1.57-7.198h-5.634z" fill="url(#S)"/><path d="M-264.254 374.582l.16.73h9.96l.16-.73h-5.636z" fill="#0038dd"/></g></g></svg>