<svg xmlns="http://www.w3.org/2000/svg" xmlns:xlink="http://www.w3.org/1999/xlink" width="432" height="446.689" viewBox="0 0 114.3 118.187"><defs><linearGradient xlink:href="#e" id="q" gradientUnits="userSpaceOnUse" x1="-1027.143" y1="1333.234" x2="-1027.143" y2="1172.52" gradientTransform="matrix(-.26458 0 0 .26458 -491.277 0)"/><linearGradient id="a"><stop offset="0" stop-color="#2f90fb"/><stop offset="1" stop-color="#1d7ee9"/></linearGradient><linearGradient id="b"><stop offset="0" stop-color="#f13855"/><stop offset="1" stop-color="#ff714e"/></linearGradient><linearGradient id="d"><stop offset="0" stop-color="#b3d0ff"/><stop offset="1" stop-color="#8db7ff"/></linearGradient><linearGradient id="e"><stop offset="0" stop-color="#0038dd"/><stop offset="1" stop-color="#076aff"/></linearGradient><linearGradient id="f"><stop offset="0" stop-color="#ffa609"/><stop offset="1" stop-color="#ffba15"/></linearGradient><linearGradient id="g"><stop offset="0" stop-color="#23016e"/><stop offset="1" stop-color="#00003b"/></linearGradient><linearGradient xlink:href="#b" id="i" gradientUnits="userSpaceOnUse" gradientTransform="matrix(-1 0 0 1 -432.65 0)" x1="-198.989" y1="239.718" x2="-198.989" y2="237.833"/><linearGradient xlink:href="#c" id="j" gradientUnits="userSpaceOnUse" x1="-198.371" y1="266.242" x2="-188.648" y2="259.561" gradientTransform="matrix(-1 0 0 1 -417.348 0)"/><linearGradient xlink:href="#b" id="m" gradientUnits="userSpaceOnUse" gradientTransform="matrix(-1 0 0 1 -491.13 -.378)" x1="-296.87" y1="358.071" x2="-296.987" y2="360.56"/><linearGradient xlink:href="#d" id="l" gradientUnits="userSpaceOnUse" gradientTransform="matrix(-.26458 0 0 .26458 -491.13 -.378)" x1="-1148.036" y1="1383.502" x2="-1128.125" y2="1373.859"/><linearGradient xlink:href="#b" id="p" gradientUnits="userSpaceOnUse" gradientTransform="translate(80.995 -.378)" x1="-296.87" y1="358.071" x2="-296.987" y2="360.56"/><linearGradient xlink:href="#d" id="o" gradientUnits="userSpaceOnUse" gradientTransform="matrix(.26458 0 0 .26458 80.995 -.378)" x1="-1148.036" y1="1383.502" x2="-1128.125" y2="1373.859"/><linearGradient id="c"><stop offset="0" stop-color="#e59a12"/><stop offset="1" stop-color="#ffba15"/></linearGradient><linearGradient xlink:href="#f" id="r" gradientUnits="userSpaceOnUse" x1="-849.589" y1="912.686" x2="-848.351" y2="918.873" gradientTransform="matrix(-.26458 0 0 .26458 -420.787 0)"/><linearGradient xlink:href="#b" id="s" gradientUnits="userSpaceOnUse" x1="-1090.081" y1="901.423" x2="-1085.283" y2="910.388" gradientTransform="matrix(.26458 0 0 .26458 83.61 0)"/><linearGradient xlink:href="#b" id="t" gradientUnits="userSpaceOnUse" x1="-1080.268" y1="830.109" x2="-1078.393" y2="846.627" gradientTransform="matrix(.25977 .05023 -.05023 .25977 122.844 59.776)"/><linearGradient xlink:href="#g" id="u" gradientUnits="userSpaceOnUse" x1="-298.206" y1="224.336" x2="-299.275" y2="219.091" gradientTransform="rotate(10.944 -250.568 671.057)"/><linearGradient xlink:href="#g" id="v" gradientUnits="userSpaceOnUse" x1="-287.167" y1="210.632" x2="-288.278" y2="213.42" gradientTransform="rotate(10.944 -250.568 671.057)"/><linearGradient xlink:href="#e" id="w" gradientUnits="userSpaceOnUse" x1="-1116.724" y1="1318.489" x2="-1099.551" y2="1118.984" gradientTransform="matrix(-.26458 0 0 .26458 -491.277 0)"/><linearGradient xlink:href="#f" id="x" gradientUnits="userSpaceOnUse" x1="-837.439" y1="981.313" x2="-788.439" y2="1038.313" gradientTransform="matrix(-.26458 0 0 .26458 -420.507 .187)"/><linearGradient xlink:href="#b" id="y" gradientUnits="userSpaceOnUse" x1="-207.926" y1="259.933" x2="-203.436" y2="258.015" gradientTransform="matrix(-1.13678 0 0 1.13678 -445.975 -35.391)"/><linearGradient xlink:href="#c" id="z" gradientUnits="userSpaceOnUse" gradientTransform="matrix(-.26458 0 0 .26458 -419.877 0)" x1="-824.06" y1="1014.02" x2="-838.56" y2="970.52"/><linearGradient xlink:href="#f" id="A" gradientUnits="userSpaceOnUse" gradientTransform="matrix(-.07 0 0 .07 -420.713 .05)" x1="-2853.201" y1="4144.34" x2="-2996.849" y2="4018.063"/><linearGradient xlink:href="#b" id="k" gradientUnits="userSpaceOnUse" gradientTransform="matrix(-1 0 0 1 -491.13 -.378)" x1="-296.87" y1="358.071" x2="-296.987" y2="360.56"/><linearGradient xlink:href="#b" id="n" gradientUnits="userSpaceOnUse" gradientTransform="translate(80.995 -.378)" x1="-296.87" y1="358.071" x2="-296.987" y2="360.56"/><clipPath clipPathUnits="userSpaceOnUse" id="h"><path style="marker:none" d="M-179.618 195.944c6.2 0 11.192 4.992 11.192 11.192V294.495c0 3.1-2.496 5.596-5.596 5.596h-72.743a5.583 5.583 0 01-5.596-5.596V201.54c0-3.1 2.496-5.596 5.596-5.596h42.348z" fill="#e0e1e2" stroke-width=".317" stroke-linecap="round" stroke-linejoin="round" stroke-dasharray=".634987,.634987"/></clipPath></defs><path style="marker:none" d="M9.098 20.82A9.078 9.078 0 000 29.918v71.02a4.54 4.54 0 004.549 4.549h59.137a4.539 4.539 0 004.55-4.55V25.369a4.539 4.539 0 00-4.55-4.548H29.26z" fill="#d5d5d5"/><path d="M31.75 0c-7.036 0-12.7 5.664-12.7 12.7V111.837a6.336 6.336 0 006.35 6.35H107.95a6.336 6.336 0 006.35-6.35V6.35A6.336 6.336 0 00107.95 0H59.892z" style="marker:none" fill="#e0e1e2"/><g clip-path="url(#h)" transform="matrix(-1.13481 0 0 1.13481 -172.083 -222.36)" stroke-width=".881"><path d="M-230.618 241.305s-.033-2.381-.694-3.87c-.662-1.488-2.547-1.19-3.77-1.785-1.224-.596-.927.297-.398.595.53.298-2.679-.76-3.505-1.389-.827-.628-2.878.926-2.05 2.48.826 1.555 3.373 2.613 6.018 2.812 2.646.198 4.4 1.157 4.4 1.157z" fill="url(#i)"/><path d="M-216.219 242.983s-5.291 3.683-7.408 10.782c-1.125 3.77-1.323 2.513-1.323 2.513s-4.037-9.951-4.496-13.097l-.662-3.109-6.724-.066s3.522 24.862 7.546 28.398c3.2 2.812 8.834.839 12.273-3.262 3.44-4.101.794-22.159.794-22.159z" fill="url(#j)"/><path d="M-191.02 360.405s3.641 1.464 6.147 3.569c2.505 2.105.1 3.207-3.074 3.274-3.174.067-6.548-2.339-7.584-3.508-1.035-1.17-.014-3.642-.014-3.642z" fill="#8db7ff"/><path d="M-190.76 356.697l-.26 3.708s.866.733 1.797 1.394c.931.662-1.147 1.087-3.442.45-2.295-.639-2.88-2.15-2.88-2.15l-.411-3.591z" fill="url(#k)"/><path d="M-195.603 360.263c.17.172.364.53.64 1.122.735 1.57 2.673 2.07 4.577 2.973 1.904.902 5.279.802 4.995-.217-.091-.327-.48-.79-.967-1.269.514.342 1.019.71 1.485 1.102 2.505 2.105.1 3.207-3.074 3.274-3.174.067-6.548-2.339-7.584-3.508-.93-1.05-.23-3.06-.072-3.477z" fill="url(#l)"/><path d="M-195.545 360.098l4.525.308.396.17c.901.598 2.576 1.553 1.336 1.985-.929.324-4.778.292-6.352-2.194l.095-.269z" fill="#6f9cfe"/><path d="M-190.76 356.697l-.26 3.708s.866.733 1.797 1.394c.931.662-1.147 1.087-3.442.45-2.295-.639-2.88-2.15-2.88-2.15l-.411-3.591z" fill="url(#m)"/><path d="M-195.968 361.796c.693 1.322 3.224 4.293 7.403 4.5 3.42.169 4.31-.814 4.542-1.372.847 1.487-1.268 2.268-3.924 2.324-3.174.067-6.548-2.339-7.584-3.508-.448-.506-.51-1.256-.437-1.944z" fill="#6f9cfe"/><path d="M-219.116 360.405s-3.641 1.464-6.147 3.569c-2.505 2.105-.1 3.207 3.074 3.274 3.174.067 6.548-2.339 7.584-3.508 1.035-1.17.014-3.642.014-3.642z" fill="#8db7ff"/><path d="M-219.376 356.697l.26 3.708s-.866.733-1.797 1.394c-.931.662 1.147 1.087 3.442.45 2.295-.639 2.88-2.15 2.88-2.15l.411-3.591z" fill="url(#n)"/><path d="M-214.533 360.263c-.17.172-.364.53-.64 1.122-.735 1.57-2.673 2.07-4.577 2.973-1.904.902-5.279.802-4.995-.217.091-.327.48-.79.967-1.269-.514.342-1.019.71-1.485 1.102-2.505 2.105-.1 3.207 3.074 3.274 3.173.067 6.548-2.339 7.584-3.508.93-1.05.23-3.06.072-3.477z" fill="url(#o)"/><path d="M-214.591 360.098l-4.525.308-.396.17c-.901.598-2.576 1.553-1.336 1.985.929.324 4.778.292 6.352-2.194l-.095-.269z" fill="#6f9cfe"/><path d="M-219.376 356.697l.26 3.708s-.866.733-1.797 1.394c-.931.662 1.147 1.087 3.442.45 2.295-.639 2.88-2.15 2.88-2.15l.411-3.591z" fill="url(#p)"/><path d="M-214.168 361.796c-.693 1.322-3.224 4.293-7.403 4.5-3.42.169-4.31-.814-4.542-1.372-.847 1.487 1.268 2.268 3.924 2.324 3.173.067 6.548-2.339 7.584-3.508.448-.506.51-1.256.437-1.944z" fill="#6f9cfe"/><path d="M-186.061 291.213l-4.063 66.358h-6.52l-7.039-54.002-9.498 54.002h-7.607l-1.75-66.518z" fill="#076aff"/><path d="M-222.537 291.053l8.765.038c-1.02 22.112-4.495 34.785-3.84 66.48h-3.175z" fill="url(#q)"/><path d="M-199.926 239.972s2.242-.663 10.327 3.146c8.085 3.808 8.859 8.8 9.19 12.91.33 4.11.493 8.918.54 12.945.013 1.087-2.51 1.77-3.921 1.638-3.648-.34-3.427-1.287-3.427-1.287s.672 15.362.738 17.3c.067 1.937.067 4.476.067 4.476s-8.285 2.339-14.766.802c-6.482-1.537-20.18 1.069-21.516.133 1.063-13.347.559-20.046.524-31.973-.017-5.784.88-10.703 1.966-12.617.828-1.459 3.59-6.057 10.707-6.993 7.116-.935 9.571-.48 9.571-.48z" fill="#ffba15"/><path d="M-205.373 291.554s.276 3.572.263 6.544c0 0-.367.546-.364-.767.003-1.313-.146-2.991-.146-2.991s-1.363.314-1.938-1.035c-.575-1.35-.406-1.743-.406-1.743s2.247-.566 2.591-.008z" fill="#0038dd"/><path d="M-202.043 239.862c1.503-.003 2.117.11 2.117.11s2.242-.663 10.327 3.145c1.906.898 3.401 1.862 4.585 2.864-5.307-2.043-15.66-5.053-29.1-4.218 1.286-.599 2.81-1.073 4.617-1.31 3.558-.468 5.95-.588 7.454-.591z" fill="url(#r)"/><path d="M-201.392 239.825c1.023.024 1.49.1 1.49.1s.764-.217 2.977.34c-.014.067-.023.126-.04.203-1.332 3.738-6.22 7.6-10.591 7.09-3.826-.446-3.884-3.737-3.302-6.913a17.46 17.46 0 011.384-.24 80.558 80.558 0 013.794-.412c.342.03.675.049.991.02.681-.059 1.295-.102 1.848-.133.55-.03 1.017-.046 1.449-.055z" fill="#fff"/><path d="M-201.392 239.825c1.023.024 1.49.1 1.49.1s.57-.166 2.168.153c-.024.036-.047.07-.078.11-1.992 3.834-6.381 7.073-10.719 5.94-2.092-.537-2.269-3.54-1.998-5.549.342-.066.691-.126 1.055-.174a79.465 79.465 0 013.983-.428c.277.04.545.06.802.037.681-.06 1.295-.103 1.848-.134.55-.03 1.017-.046 1.449-.055z" fill="#076aff"/><path d="M-202.043 239.862c1.503-.003 2.117.11 2.117.11s.435-.127 1.608.053c-1.872 3.402-5.44 6.462-9.508 5.829-2.38-.035-2.464-3.12-2.304-5.306.207-.035.418-.067.633-.096a77.704 77.704 0 014.402-.462c.135.025.27.036.406.024.681-.06 1.295-.103 1.848-.134l.056-.003c.252-.006.527-.015.742-.016z" fill="#0038dd"/><path d="M-210.975 237.374l1.56 6.898s.236 1.937 4.205 1.04c3.968-.898 6.567-5.386 6.567-5.386l-1.04-11.056z" fill="#ff714e"/><path d="M-214.267 224.257s-3.02-.344-3.792-5.57c-.773-5.225 3.245-9.98 8.811-10.148 8.633-.259 12.227 2.824 12.104 5.32 0 0 2.476-.879 3.416 1.866.94 2.744-.137 6.968-.784 9.093s-13.904 4.341-19.755-.561z" fill="#00003b"/><path d="M-203.133 231.469l-7.841 5.905 1.442 6.381c8.217-1.498 9.901-7.8 10.238-10.746l-.144-1.54z" fill="url(#s)"/><path d="M-214.856 224.515s-.49 7.813.66 10.975c1.151 3.162 6.081 5.713 10.876 3.147 5.126-2.745 6.06-7.261 6.404-10.43 0 0 3.646.101 3.6-3.096-.045-3.197-3.368-1.403-4.047.364l-.354-5.288c-5.646-1.807-11.581-1.03-16.359 1.948 0 0-.418.062-.78 2.38z" fill="#ff714e"/><path d="M-199.845 219.63c-4.981-1.02-10.045-.102-14.223 2.501.131.491.39 1.045.82 1.674 0 0 3.532.78 5.239-.334 1.707-1.114 1.006.892 3.877-.02 2.872-.913 4.406-2.999 4.445-.465.04 2.534-.519 4.905 1.177 4.621l.875-6.199-.073-1.083-.138-.177c-.664-.208-1.33-.38-2-.518z" fill="url(#t)"/><path d="M-214.803 224.115s4.236.804 7.769-2.573c0 0 1.182 1.864 3.827.552 2.646-1.312 4.656-2.833 4.593-.498-.062 2.335.104 6.011.104 6.011s.918-.603 1.147-2.132c.23-1.53.756-6.139.756-6.139l-10.825-3.656-6.913 3.71z" fill="#00003b"/><path d="M-215.608 220.337s-.165 4.018 3.01 2.556c3.175-1.462 5.06-3.82 6.155-2.791 1.094 1.028 3.275 1.007 5.272-.342 1.996-1.35 2.341-.67 2.915-.117.573.553 1.656-3.286-3.34-1.905-4.998 1.382-3.918-.86-6.644.043-2.727.902-5.688 4.072-4.76 1.563.927-2.509-2.838-3.1-2.608.993z" fill="url(#u)"/><path d="M-204.94 209.334s5.185.287 5.705 2.702c.52 2.414.755 3.31 2.174 2.836 1.418-.474 2.785-.856 2.815 1.804.03 2.66-.32 3.238-1.262 1.423s-.511-2.107-2.692-1.916c-2.18.191-2.831-1.194-3.112-3.085-.28-1.892-1.195-2.443-2.992-2.655-1.796-.211-2.994-1.055-.636-1.11z" fill="url(#v)"/><path d="M-195.94 225.348s1.19-1.046 1.35-.028c.16 1.018-1.26 1.679-1.26 1.679M-214.786 224.001s-1.755 12.112 3.394 14.6" fill="none" stroke="#de1a38" stroke-width=".466" stroke-linecap="round" stroke-linejoin="round"/><path d="M-202.038 298.377c.975-.067 1.964.786 2.887 2.632 2 4 4.927 46.453 5.6 56.562h-3.093l-7.039-54.002-4.88 27.753c.367-7.6 1.229-22.283 2.596-26.972 1.111-3.809 2.505-5.874 3.93-5.973z" fill="url(#w)"/><path d="M-192.401 252.814c.63-.01 1.09.088 1.09.088l-.62 1.161s.28 1.778.701 2.526c.421.748.281 3.601.281 3.601l-16.744-4.022-.983 2.432-.093 1.871-.888 1.45.233.374 20.3 6.782 2.29 2.21c.122 2.79.6 13.762.66 15.476.066 1.938.066 4.477.066 4.477s-8.285 2.339-14.766.802c-3.542-.84-9.197-.444-13.853-.063a6.27 6.27 0 01-.918-1.246c-3.367-6.174-2.244-10.945-1.215-15.248 1.029-4.303-.796-15.201-1.263-18.662-.468-3.461 3.508-.749 2.619-1.965-.889-1.216 0-2.105 7.81-.234 7.812 1.871 11.058 2.545 12.083.064.641-1.55 2.16-1.86 3.21-1.874z" fill="url(#x)"/><path d="M-208.44 256.613s-3.828-2.127-4.865-2.446c-1.037-.32-.452.505.32 1.462.77.957-3.51-.213-4.866-.904-1.356-.691-1.037.877-.904 2.393.133 1.515 4.334 3.482 6.86 3.695 2.525.213 2.365.266 2.365.266s.4-1.967.426-2.605c.026-.638.664-1.861.664-1.861z" fill="url(#y)"/><path d="M-181.393 250.978c.66 1.735.856 3.459.984 5.05.33 4.11.493 8.918.54 12.945.013 1.087-2.51 1.77-3.921 1.638a14.539 14.539 0 01-1.46-.204l-1.682-.615c-.222-.174-.272-.321-.281-.402l.013.304-3.608-1.319-19.06-6.197.842-3.367s16.971 5.116 22.594 6.439c4.41 1.038 4.992-9.617 5.039-14.272z" fill="url(#z)"/><path d="M-180.072 261.5s.28 5.753.28 6.688c0 .936-.234 2.012-2.245 2.292-2.011.28-4.396-.374-6.735-1.263-2.339-.888-21.188-7.203-21.188-7.203s1.03-2.291.889-2.946c-.14-.655.982-3.04.982-3.04l16.932 3.928s-.094-2.9-.702-4.443c-.608-1.543.14-2.62.14-2.62M-218.357 244.896s-2.994 3.788-3.415 9.822c-.42 6.034-.28 14.686-.28 14.686M-230.097 240.055s-5.292-.031-6.052-.023c-.761.008-.703 0-.703 0s.745 4.84 1.142 6.665" fill="none" stroke="#ce8605" stroke-width=".466" stroke-linecap="round" stroke-linejoin="round"/><path d="M-222.043 271.69c.912 1.275 1.36 3.41 1.48 4.937.264 3.373 5.159 3.109 2.05 7.805-3.109 4.697 4.828 4.432 14.023 3.77 6.407-.46 10.591 2.256 12.543 3.947-2.787.34-6.202.47-9.231-.247-6.482-1.537-20.18 1.069-21.516.133.672-8.437.717-14.22.651-20.345z" fill="url(#A)"/><path d="M-222.655 289.606s-.615 2.528 1.11 2.598c1.724.071 9.473-.732 13.205-.78 3.733-.046 5.576-.07 7.347.402 1.772.473 5.032.686 7.962.473 2.929-.213 7.063-1.276 7.063-1.276" fill="none" stroke="#042a9b" stroke-width=".466" stroke-linecap="round" stroke-linejoin="round"/></g></svg>