<svg xmlns="http://www.w3.org/2000/svg" xmlns:xlink="http://www.w3.org/1999/xlink" width="480" height="522.449" viewBox="0 0 127 138.231"><defs><linearGradient xlink:href="#e" id="y" gradientUnits="userSpaceOnUse" gradientTransform="matrix(-1 0 0 1 -527.542 -90.6)" x1="-296.87" y1="358.071" x2="-296.987" y2="360.56"/><linearGradient id="a"><stop offset="0" stop-color="#2f90fb"/><stop offset="1" stop-color="#1d7ee9"/></linearGradient><linearGradient id="c"><stop offset="0" stop-color="#5d87d5"/><stop offset="1" stop-color="#a9bfe6"/></linearGradient><linearGradient id="d"><stop offset="0" stop-color="#2c3b56"/><stop offset="1" stop-color="#041b48"/></linearGradient><linearGradient id="e"><stop offset="0" stop-color="#f13855"/><stop offset="1" stop-color="#ff714e"/></linearGradient><linearGradient id="f"><stop offset="0" stop-color="#b3d0ff"/><stop offset="1" stop-color="#8db7ff"/></linearGradient><linearGradient id="g"><stop offset="0" stop-color="#0038dd"/><stop offset="1" stop-color="#076aff"/></linearGradient><linearGradient id="h"><stop offset="0" stop-color="#ffa609"/><stop offset="1" stop-color="#ffba15"/></linearGradient><linearGradient id="i"><stop offset="0" stop-color="#23016e"/><stop offset="1" stop-color="#00003b"/></linearGradient><linearGradient id="j"><stop offset="0" stop-color="#eaf1fc"/><stop offset="1" stop-color="#a9bfe6"/></linearGradient><linearGradient id="k"><stop offset="0" stop-color="#a9bfe6"/><stop offset="1" stop-color="#eaf1fc"/></linearGradient><linearGradient id="l"><stop offset="0" stop-color="#83a4d6"/><stop offset="1" stop-color="#a9bfe6"/></linearGradient><linearGradient id="m"><stop offset="0" stop-color="#ff9209"/><stop offset="1" stop-color="#ffa609"/></linearGradient><linearGradient id="n"><stop offset="0" stop-color="#0e6fff"/><stop offset="1" stop-color="#095dda"/></linearGradient><linearGradient xlink:href="#b" id="o" gradientUnits="userSpaceOnUse" gradientTransform="translate(-3.44)" x1="-212.664" y1="197.077" x2="-225.199" y2="185.571"/><linearGradient xlink:href="#c" id="p" gradientUnits="userSpaceOnUse" gradientTransform="translate(-28.679)" x1="220.281" y1="209.661" x2="218.455" y2="254.73"/><linearGradient xlink:href="#c" id="q" gradientUnits="userSpaceOnUse" gradientTransform="translate(-47.653)" x1="-148.487" y1="209.849" x2="-148.86" y2="248.909"/><linearGradient xlink:href="#c" id="r" gradientUnits="userSpaceOnUse" gradientTransform="translate(47.653)" x1="220.281" y1="209.661" x2="218.455" y2="254.73"/><linearGradient xlink:href="#d" id="s" gradientUnits="userSpaceOnUse" gradientTransform="translate(-47.653)" x1="-224.319" y1="161.922" x2="-203.178" y2="221.042"/><linearGradient xlink:href="#e" id="t" gradientUnits="userSpaceOnUse" gradientTransform="scale(-1 1) rotate(15 308.426 2211.48)" x1="-296.87" y1="358.071" x2="-296.987" y2="360.56"/><linearGradient xlink:href="#f" id="u" gradientUnits="userSpaceOnUse" gradientTransform="scale(-.26458 .26458) rotate(15 1165.706 8358.348)" x1="-1148.036" y1="1383.502" x2="-1128.125" y2="1373.859"/><linearGradient xlink:href="#e" id="v" gradientUnits="userSpaceOnUse" gradientTransform="scale(-1 1) rotate(15 308.426 2211.48)" x1="-296.87" y1="358.071" x2="-296.987" y2="360.56"/><linearGradient xlink:href="#e" id="w" gradientUnits="userSpaceOnUse" gradientTransform="matrix(-1 0 0 1 -527.542 -90.6)" x1="-296.87" y1="358.071" x2="-296.987" y2="360.56"/><linearGradient xlink:href="#f" id="x" gradientUnits="userSpaceOnUse" gradientTransform="matrix(-.26458 0 0 .26458 -527.542 -90.6)" x1="-1148.036" y1="1383.502" x2="-1128.125" y2="1373.859"/><linearGradient id="b"><stop offset="0" stop-color="#e59a12"/><stop offset="1" stop-color="#ffba15"/></linearGradient><linearGradient xlink:href="#g" id="z" gradientUnits="userSpaceOnUse" gradientTransform="matrix(.26458 0 0 .26458 -13.605 -88.9)" x1="-3254.497" y1="4132.282" x2="-3430.884" y2="3327.85"/><linearGradient xlink:href="#b" id="A" gradientUnits="userSpaceOnUse" gradientTransform="scale(-.86772 .86772) rotate(54.334 37.456 799.322)" x1="-317.247" y1="264.845" x2="-321.08" y2="264.085"/><linearGradient xlink:href="#h" id="B" gradientUnits="userSpaceOnUse" gradientTransform="matrix(.26458 0 0 .26458 -.28 .187)" x1="-3612.199" y1="2365.771" x2="-3422.45" y2="2918.985"/><linearGradient xlink:href="#b" id="C" gradientUnits="userSpaceOnUse" gradientTransform="translate(-3.44)" x1="-990.045" y1="790.179" x2="-995.349" y2="698.256"/><linearGradient xlink:href="#c" id="D" gradientUnits="userSpaceOnUse" gradientTransform="translate(-47.653)" x1="-213.594" y1="209.849" x2="-218.336" y2="264.871"/><linearGradient xlink:href="#h" id="E" gradientUnits="userSpaceOnUse" gradientTransform="matrix(-1 0 0 1 -2018.203 -303.105)" x1="-1054.107" y1="910.377" x2="-1053.214" y2="925.198"/><linearGradient xlink:href="#e" id="F" gradientUnits="userSpaceOnUse" gradientTransform="matrix(-.26458 0 0 .26458 -533.983 -80.196)" x1="-1090.081" y1="901.423" x2="-1085.283" y2="910.388"/><linearGradient xlink:href="#e" id="G" gradientUnits="userSpaceOnUse" gradientTransform="matrix(-.26274 .03115 .03115 .26274 -558.976 -44.913)" x1="-1080.268" y1="830.109" x2="-1078.393" y2="846.627"/><linearGradient xlink:href="#i" id="H" gradientUnits="userSpaceOnUse" gradientTransform="scale(-1 1) rotate(6.762 659.6 4708.31)" x1="-298.206" y1="224.336" x2="-299.275" y2="219.091"/><linearGradient xlink:href="#i" id="I" gradientUnits="userSpaceOnUse" gradientTransform="scale(-1 1) rotate(6.762 659.6 4708.31)" x1="-287.167" y1="210.632" x2="-288.278" y2="213.42"/><linearGradient xlink:href="#e" id="J" gradientUnits="userSpaceOnUse" gradientTransform="scale(-1 1) rotate(23.782 174.388 1471.518)" x1="-277.387" y1="278.148" x2="-274.033" y2="276.259"/><linearGradient xlink:href="#j" id="K" gradientUnits="userSpaceOnUse" gradientTransform="translate(-47.653)" x1="-131.498" y1="201.882" x2="-230.977" y2="201.882"/><linearGradient xlink:href="#k" id="L" gradientUnits="userSpaceOnUse" gradientTransform="translate(-47.653)" x1="-217.507" y1="199.433" x2="-247.425" y2="205.046"/><linearGradient xlink:href="#l" id="M" gradientUnits="userSpaceOnUse" gradientTransform="translate(-47.653)" x1="-220.13" y1="204.11" x2="-118.24" y2="204.11"/><linearGradient xlink:href="#l" id="N" gradientUnits="userSpaceOnUse" gradientTransform="translate(-47.653)" x1="-250.23" y1="203.999" x2="-216.628" y2="202.213"/><linearGradient xlink:href="#m" id="O" gradientUnits="userSpaceOnUse" gradientTransform="matrix(.26458 0 0 .26458 -.28 .187)" x1="-995.677" y1="1362.049" x2="-984.811" y2="1416.11"/><linearGradient xlink:href="#h" id="P" gradientUnits="userSpaceOnUse" gradientTransform="matrix(.26458 0 0 .26458 -.28 .187)" x1="-950.941" y1="1361.779" x2="-975.489" y2="1409.188"/><linearGradient xlink:href="#n" id="Q" gradientUnits="userSpaceOnUse" gradientTransform="translate(701.745 -95.795)" x1="-956.56" y1="469.82" x2="-965.921" y2="468.172"/><linearGradient xlink:href="#n" id="R" gradientUnits="userSpaceOnUse" gradientTransform="translate(701.745 -95.795)" x1="-961.908" y1="476.763" x2="-959.181" y2="470.962"/><linearGradient xlink:href="#e" id="S" gradientUnits="userSpaceOnUse" gradientTransform="scale(-1 1) rotate(23.782 158.796 1398.25)" x1="-277.387" y1="278.148" x2="-274.033" y2="276.259"/><linearGradient xlink:href="#n" id="T" gradientUnits="userSpaceOnUse" gradientTransform="translate(1539.353 -90.657)" x1="-1503.795" y1="393.041" x2="-1530.596" y2="428.265"/><linearGradient xlink:href="#n" id="U" gradientUnits="userSpaceOnUse" gradientTransform="translate(1555.779 -91.306)" x1="-1503.795" y1="393.041" x2="-1530.596" y2="428.265"/><linearGradient xlink:href="#n" id="V" gradientUnits="userSpaceOnUse" gradientTransform="matrix(-1 0 0 1 -1538.604 -90.657)" x1="-1503.795" y1="393.041" x2="-1530.596" y2="428.265"/></defs><g stroke-width="1.096"><path d="M-236.165 162.195s15.081 4.498 14.95 17.065c-.133 12.568-.133 13.362 6.481 13.362 0 0 1.257 3.572-2.182 5.027-3.44 1.455-8.996 1.852-10.716 1.323-1.72-.53-1.918-2.514-1.918-7.673 0-5.16-6.615-29.104-6.615-29.104z" fill="url(#o)" transform="translate(274.58 -114.473) scale(.9122)"/><path d="M45.517 133.585c-5.288-.022-19.595.307-21.76 4.467H71.2c-2.665-5.12-23.722-4.437-23.722-4.437s-.74-.024-1.96-.03z" fill="#161046"/><path transform="matrix(-.9122 0 -.07862 .9088 274.58 -114.473)" fill="url(#p)" d="M189.301 204.186h5.658v73.678h-5.658z"/><path transform="matrix(.9122 0 .07862 .9088 274.58 -114.473)" fill="url(#q)" d="M-199.283 204.186h5.658v73.678h-5.658z"/><path transform="matrix(-.9122 0 -.07862 .9088 274.58 -114.473)" fill="url(#r)" d="M265.633 204.186h5.658v73.678h-5.658z"/><path fill="#161046" d="M42.87 92.623h9.217v5.632H42.87z"/><path fill="#161046" d="M44.898 92.623h5.16v42.743h-5.16z"/><path d="M-255.147 156.594c-11.366-.818-25.704-.567-26.71 2.851-2.23 7.574-.955 28.882-.244 46.21.538 13.126 5.104 20.989 13.895 21.662 13.382 1.024 42.92 1.929 55.042-.942 4.362-.52 3.895-6.047.743-7.17-2.465-.88-20.276 3.104-22.029-11.976-1.736-14.94-3.321-45.04-5.2-47.537-1.025-1.363-7.72-2.539-15.497-3.098z" fill="url(#s)" transform="translate(274.58 -114.473) scale(.9122)"/><path d="M21.66 28.795c-2.328.47-3.894 1.173-4.19 2.178-2.034 6.909-.87 26.347-.222 42.152.49 11.974 4.655 19.147 12.674 19.76 12.208.936 39.153 1.76 50.21-.858 2.413-.288 3.204-2.255 2.813-3.988-11.969 2.153-36.78 1.368-48.355.481-8.019-.614-12.184-7.786-12.675-19.76-.589-14.368-1.603-31.734-.255-39.965z" fill="#161046"/><path d="M92.487 128.486s3.554.43 6.258 1.693c2.705 1.263.846 2.802-1.935 3.61-2.78.809-6.322-.514-7.51-1.3-1.189-.786-.872-3.205-.872-3.205z" fill="#8db7ff"/><path d="M-200.329 262.694l.71 3.65s1.025.483 2.096.88c1.07.398-.827 1.347-3.21 1.325-2.381-.022-3.337-1.331-3.337-1.331l-1.327-3.362z" fill="url(#t)" transform="translate(274.58 -114.473) scale(.9122)"/><path d="M-204.084 267.392c.209.122.489.419.909.918 1.116 1.326 3.118 1.309 5.19 1.687 2.073.378 5.307-.592 4.769-1.502-.173-.293-.669-.64-1.262-.976.584.197 1.168.423 1.719.68 2.965 1.385.927 3.072-2.121 3.958-3.049.886-6.931-.564-8.234-1.425-1.17-.774-1.015-2.896-.97-3.34z" fill="url(#u)" transform="translate(274.58 -114.473) scale(.9122)"/><path d="M88.428 129.284l4.06-.798.388.057c.936.314 2.636.76 1.646 1.434-.742.504-4.141 1.385-6.115-.434.01-.115.02-.26.02-.26z" fill="#6f9cfe"/><path d="M-200.329 262.694l.71 3.65s1.025.483 2.096.88c1.07.398-.827 1.347-3.21 1.325-2.381-.022-3.337-1.331-3.337-1.331l-1.327-3.362z" fill="url(#v)" transform="translate(274.58 -114.473) scale(.9122)"/><path d="M88.455 130.88c.923 1 3.855 3.02 7.586 2.216 3.054-.658 3.605-1.734 3.678-2.28 1.097 1.11-.582 2.297-2.909 2.974-2.78.808-6.322-.515-7.51-1.301-.515-.34-.746-.986-.845-1.61z" fill="#6f9cfe"/><path d="M67.118 131.988s3.321 1.335 5.607 3.255.091 2.926-2.804 2.987c-2.895.06-5.973-2.133-6.918-3.2-.944-1.067-.012-3.322-.012-3.322z" fill="#8db7ff"/><path d="M-227.17 266.474l-.26 3.709s.865.732 1.796 1.393c.931.662-1.147 1.087-3.442.45-2.295-.639-2.88-2.15-2.88-2.15l-.41-3.591z" fill="url(#w)" transform="translate(274.58 -114.473) scale(.9122)"/><path d="M-232.014 270.04c.17.172.364.53.64 1.122.735 1.57 2.673 2.07 4.577 2.973 1.905.902 5.279.802 4.995-.217-.091-.327-.48-.79-.966-1.269.513.342 1.018.71 1.484 1.102 2.505 2.105.1 3.207-3.074 3.274-3.173.067-6.548-2.339-7.584-3.508-.93-1.05-.23-3.06-.072-3.477z" fill="url(#x)" transform="translate(274.58 -114.473) scale(.9122)"/><path d="M62.99 131.708l4.128.28.361.155c.822.546 2.35 1.417 1.219 1.812-.848.295-4.359.266-5.795-2.001l.088-.246z" fill="#6f9cfe"/><path d="M-227.17 266.474l-.26 3.709s.865.732 1.796 1.393c.931.662-1.147 1.087-3.442.45-2.295-.639-2.88-2.15-2.88-2.15l-.41-3.591z" fill="url(#y)" transform="translate(274.58 -114.473) scale(.9122)"/><path d="M62.604 133.257c.632 1.206 2.941 3.916 6.754 4.104 3.12.155 3.93-.742 4.143-1.25.772 1.355-1.157 2.068-3.58 2.12-2.895.06-5.973-2.135-6.918-3.201-.408-.462-.465-1.146-.399-1.773z" fill="#6f9cfe"/><path d="M38.397 70.42s-5.829 11.275.69 14.894c6.518 3.618 33.626 3.734 33.37 5.85-.254 2.115 13.716 35.347 13.716 35.347l7.558-.097s-8.693-34.312-11.787-43.118c-2.62-7.46-38.493-8.798-38.493-8.798z" fill="#0038dd"/><path d="M34.1 74.445s-2.712 12.4 4.52 14.207c7.233 1.808 22.82 2.954 23.122 5.063.302 2.11-.121 36.598-.121 36.598h6.45s7.363-37.2 6.308-45.036c-1.055-7.835-34.904-10.3-34.904-10.3z" fill="#076aff"/><path transform="matrix(.24135 0 0 .24135 274.58 -114.473)" d="M-998.102 811.186c1.222 13.231 6.121 26.84 20.448 30.421 29.966 7.492 94.55 12.239 95.799 20.979 1.248 8.74-.502 151.635-.502 151.635h13.705c3.113-27.126 13.956-126.42 9.652-158.701-5-37.5-67.5-31-108.5-34.5-15.456-1.32-24.868-5.338-30.602-9.834z" fill="url(#z)"/><path d="M-235.96 162.23s10.664 3.742 11.74 13.33c1.075 9.589.841 14.22.841 14.22l-7.81-.141z" fill="url(#A)" transform="translate(274.58 -114.473) scale(.9122)"/><path d="M44.953 31.232s-3.922-.605-11.297 2.87c-7.376 3.474-7.058 12.123-7.36 15.872-.301 3.75-1.284 11.574-1.556 15.238-.253 3.405 2.769 3.27 4.06 3.344 1.94.112 4.379.026 4.379.026s-.432 1.87-.493 3.637c-.06 1.767-.06 4.083-.06 4.083s7.557 2.134 13.47.732c5.912-1.402 18.407.975 19.626.122 1.219-.854-1.374-4.893.953-10.841 2.327-5.948-.743-16.102-1.174-21.36-.43-5.258-1.285-6.263-2.276-8.009-.755-1.33-3.05-4.422-9.541-5.276-6.491-.853-8.73-.438-8.73-.438z" fill="#ffba15"/><path transform="matrix(.24135 0 0 .24135 274.58 -114.473)" d="M-891.857 649.783c-1.62.002-3.164.013-4.579.035-11.313.177-6.564 13.202-11.064 41.702s-12.5 21-34.5 19.5-14.5-22-15-40.5-26.125-14.25-26.125-14.25.6.973.246 6.453c-.353 5.48-2.386 28.108-3.8 36.593-1.415 8.486-3.624 13.7-3.89 20.24-.265 6.541 3.801 7.073 14.231 6.1 10.43-.972 9.9-.443 18.297-.531 8.397-.088 29.521 2.564 29.521 2.564l-1.23 12.83-14 17.25-56.75-.25-.72.962 1.017-.03s-1.787 7.745-2.04 15.069c-.252 7.323-.251 16.92-.251 16.92s12.801 3.595 28.426 4.685c2.932-2.283 5.802-4.84 8.568-7.605 15-15 46-2 71.5-4.5a355.766 355.766 0 0129.123-1.641c-.996-7.874-1.785-18.914 3.461-32.32 9.643-24.643-3.08-66.715-4.865-88.5-.331-4.04-.722-7.47-1.166-10.43-2.52-.065-14.2-.361-24.41-.346z" fill="url(#B)"/><path d="M32.56 76.314s2.357.598 4.704.918c2.346.32 5.066.352 6.858.138 1.792-.213 2.56-.565 4.139-.672 1.578-.106 5.44-.18 9.258.14 3.819.319 5.632.468 7.125.468 1.494 0 1.472-.533 1.387-1.685" fill="none" stroke="#042a9b" stroke-width=".529076" stroke-linecap="round" stroke-linejoin="round"/><path transform="matrix(.24135 0 0 .24135 274.58 -114.473)" d="M-1024.223 666.438c-1.297.012-2.499.206-3.527.453-.504 5.627-.66 10.658-.967 14.463-1.25 15.535-5.321 47.954-6.449 63.132-1.048 14.111 11.472 13.549 16.82 13.858 8.036.464 18.143.107 18.143.107s-.302 1.418-.654 3.328l3.357.24s68.5-1.5 68-12.5-59.5-9-75.5-9-5.5-11.5-5-47.5c.313-22.5-7.968-26.64-14.223-26.581z" fill="url(#C)"/><path transform="matrix(.9122 0 .07862 .9088 274.58 -114.473)" fill="url(#D)" d="M-263.841 204.186h5.658v73.678h-5.658z"/><path transform="matrix(.24135 0 0 .24135 274.58 -114.473)" d="M-943.416 603.281a88.183 88.183 0 00-3.307.055c-.335.011-.63.027-.927.041-.577.028-1.116.057-1.55.09-.18.014-.382.025-.538.039a33.13 33.13 0 00-1.227.127h-.002c-.303.04-.45.068-.45.068s-.254-.039-.759-.08c-.251-.02-.566-.04-.941-.056h-.002a34.691 34.691 0 00-1.315-.032c-2.501-.011-6.543.205-12.064 1.243a99.865 99.865 0 00-7.332 1.677c-1.34.358-2.736.758-4.192 1.205-1.455.448-2.968.942-4.539 1.489a146.076 146.076 0 00-4.388 1.617c-1.005.386-2.015.777-3.06 1.205a164.378 164.378 0 00-5.395 2.318c-.927.417-1.868.852-2.823 1.301-7.465 3.517-13.017 8.318-17.18 13.785 47.018-24.365 83.118-14.515 83.118-14.515 19.785-1.17 36.615.978 49.006 3.44a42.825 42.825 0 00-3.084-2.444c-.288-.207-.603-.412-.905-.617-.418-.284-.84-.568-1.285-.848a45.196 45.196 0 00-1.468-.9l-.047-.03c-.003 0-.005-.003-.008-.004-7.453-3.674-15.929-6.678-24.856-7.894l-.306-.045a333.704 333.704 0 00-9.276-1.094h-.002a253.25 253.25 0 00-7.72-.682 204.36 204.36 0 00-3.311-.213 173.626 173.626 0 00-2.957-.14 133.602 133.602 0 00-4.908-.106z" fill="url(#E)"/><path d="M46.884 31.131c.515.001 1.143.018 1.899.06a52.85 52.85 0 011.685.122c.931.082 1.999.197 3.216.357.203.027.405.058.604.093.076.013.15.03.225.044.132.025.263.05.393.078l.025.006a15.758 15.758 0 011.161.303c.558 2.941.539 5.587-3.008 6-3.988.465-8.446-3.057-9.662-6.467-.041-.19-.067-.34-.097-.502 1.077-.077 1.628.008 1.628.008s.035-.007.109-.016c.222-.03.794-.087 1.822-.085z" fill="#fff"/><path d="M46.884 31.131c.515.001 1.143.018 1.899.06a52.85 52.85 0 011.685.122c.931.082 1.999.197 3.216.357.203.027.405.058.604.093.076.013.15.03.225.044.132.025.263.05.393.078l.025.006c.192.043.384.089.574.138.078.02.155.044.233.066.32 1.807.278 4.27-1.765 4.795-3.957 1.034-7.96-1.921-9.778-5.419a1.422 1.422 0 01-.178-.277c.62-.01.936.039.936.039s.035-.007.109-.016c.222-.03.794-.087 1.822-.085z" fill="#076aff"/><path d="M46.884 31.131c.515.001 1.143.018 1.899.06a52.85 52.85 0 011.685.122c.931.082 1.999.197 3.216.357.203.027.405.058.604.093.076.013.15.03.225.044.132.025.263.05.393.078l.025.006c.19.042.381.088.57.137.195 1.893-.198 4.362-2.193 4.484-3.502.692-7.03-2.157-8.72-5.308.233.012.365.029.365.029s.035-.007.109-.016c.222-.03.794-.087 1.822-.085z" fill="#0038dd"/><path d="M56.202 28.905l-1.422 6.293s-.216 1.767-3.836.948c-3.62-.82-5.99-4.914-5.99-4.914l.947-10.085z" fill="#ff714e"/><path d="M60.435 16.624s2.77-.112 3.82-4.815c1.05-4.703-2.288-9.296-7.341-9.819-7.836-.81-11.311 1.756-11.366 4.035 0 0-2.194-.964-3.231 1.47-1.038 2.435-.34 6.35.108 8.325.448 1.976 12.36 4.874 18.01.804z" fill="#00003b"/><path d="M-247.239 151.272l7.841 5.906-1.442 6.38c-8.217-1.497-9.902-7.799-10.239-10.746l.145-1.54z" fill="url(#F)" transform="translate(274.58 -114.473) scale(.9122)"/><path d="M60.953 16.898s-.073 7.14-1.33 9.94c-1.257 2.8-5.913 4.794-10.104 2.14-4.481-2.838-5.03-7.009-5.132-9.915 0 0-3.324-.15-3.07-3.056.254-2.905 3.158-1.052 3.658.6l.674-4.787c5.256-1.268 10.605-.166 14.753 2.861 0 0 .376.084.551 2.217z" fill="#ff714e"/><path d="M-248.803 138.048c5.042-.654 10.025.631 14.003 3.532-.167.48-.466 1.013-.941 1.61 0 0-3.579.519-5.2-.716-1.621-1.235-1.069.816-3.866-.303-2.797-1.12-4.175-3.312-4.399-.787-.224 2.524.16 4.93-1.51 4.523l-.42-6.247.15-1.075.152-.166a20.43 20.43 0 012.03-.37z" fill="url(#G)" transform="translate(274.58 -114.473) scale(.9122)"/><path d="M60.932 16.53s-3.907.45-6.897-2.857c0 0-1.2 1.617-3.518.247-2.32-1.37-4.048-2.887-4.146-.758-.099 2.128-.494 5.462-.494 5.462s-.795-.61-.902-2.017c-.107-1.407-.28-5.635-.28-5.635l10.092-2.605 6.042 3.835z" fill="#00003b"/><path d="M-233.134 139.903s-.129 4.019-3.189 2.33c-3.06-1.69-4.768-4.179-5.934-3.233-1.166.945-3.34.766-5.233-.725-1.893-1.492-2.286-.84-2.899-.33-.612.51-1.412-3.398 3.47-1.656 4.884 1.742 3.97-.571 6.624.527 2.653 1.098 5.375 4.476 4.633 1.906-.742-2.57 3.056-2.885 2.528 1.18z" fill="url(#H)" transform="translate(274.58 -114.473) scale(.9122)"/><path d="M-242.971 128.15s-5.192-.09-5.887 2.28c-.694 2.37-.994 3.246-2.375 2.67-1.38-.576-2.715-1.057-2.94 1.593-.223 2.651.084 3.254 1.155 1.512 1.072-1.742.664-2.064 2.825-1.714 2.161.349 2.911-.985 3.33-2.851.417-1.866 1.37-2.35 3.176-2.429 1.808-.08 3.064-.834.716-1.06z" fill="url(#I)" transform="translate(274.58 -114.473) scale(.9122)"/><path d="M43.689 16.398s-1.013-1.031-1.226-.116c-.214.916 1.035 1.611 1.035 1.611M60.924 16.426s.791 11.135-4.059 13.056" fill="none" stroke="#de1a38" stroke-width=".529076" stroke-linecap="round" stroke-linejoin="round"/><path d="M-241.826 198.27s-1.53 2.739-4.763 1.376c-3.234-1.363-4.877-.64-4.877-.64l.047-.536c.968-1.92 1.942-3.836 4.176-5.17l1.482-.68s2.304-.395 5.173 2.368c2.87 2.762-1.238 3.282-1.238 3.282z" fill="url(#J)" transform="translate(274.58 -114.473) scale(.9122)"/><path d="M65.505 73.066s-.427-6.4.426-8.874c.853-2.475.683-8.107-.085-10.24" fill="none" stroke="#ce8605" stroke-width=".529076" stroke-linecap="round" stroke-linejoin="round"/><path fill="url(#K)" d="M-287.164 200.519h125.379v2.908h-125.379z" transform="translate(274.58 -114.473) scale(.9122)"/><path fill="url(#L)" d="M-301.009 200.519h36.778v2.908h-36.778z" transform="translate(274.58 -114.473) scale(.9122)"/><path fill="url(#M)" d="M-287.164 203.427h125.379v1.589h-125.379z" transform="translate(274.58 -114.473) scale(.9122)"/><path fill="url(#N)" d="M-301.009 203.427h36.778v1.589h-36.778z" transform="translate(274.58 -114.473) scale(.9122)"/><path d="M50.397 61.236s-8.48-1.205-10.834-.662c-2.353.543-4.767.301-3.922-2.414.845-2.715 1.69-9.413 1.75-11.525.06-2.111-.12-2.654-.12-2.654M45.388 68.44H28.25s-4.043.822-3.56-3.492c.482-4.314.573-5.792.573-5.792" fill="none" stroke="#ce8605" stroke-width=".529076" stroke-linecap="round" stroke-linejoin="round"/><g transform="matrix(-1.217 0 0 1.217 -205.255 -396.187)"><path d="M-262.285 377.456s-2.044-1.836-1.032-4.08c1.013-2.245 2.622-1.882 1.81-4.13-.81-2.249-.603-2.63.975-3.712 1.577-1.08.36-1.953.711-3.264.352-1.31 2.289-2.178 2.985-.068.697 2.11 1.008 3.915.08 4.78-.927.864-.912 1.081-.271 2 .64.92.771 2.113.232 2.79-.54.676.534.975.612 1.74.078.765-.416 1.847-1.278 2.347-.862.501-4.824 1.597-4.824 1.597z" fill="#ff7309" paint-order="stroke markers fill"/><path d="M-261.483 375.852s-2.607-.868-2.574-3.33c.033-2.462 1.654-2.771.013-4.51-1.64-1.738-1.603-2.17-.587-3.791 1.015-1.62-.45-1.935-.65-3.277-.2-1.343 1.23-2.91 2.71-1.253 1.48 1.657 2.485 3.188 1.98 4.35-.505 1.163-.405 1.356.55 1.944.954.587 1.55 1.63 1.324 2.465-.224.835.88.68 1.256 1.351.377.671.356 1.86-.235 2.663-.59.803-3.787 3.388-3.787 3.388z" fill="url(#O)" paint-order="stroke markers fill"/><path d="M-260.713 374.344s-1.222-1.165-.99-2.653c.232-1.49.704-2.84-.256-4.316-.96-1.477-1.312-2.413-.26-1.23 1.053 1.183 1.904 2.75 1.736 4.463-.169 1.712.648 2.723.933 2.916.284.193-1.163.82-1.163.82z" fill="#ff7309" paint-order="stroke markers fill"/><path d="M-259.717 373.446s-1.44-2.34.165-4.205c1.607-1.867 3.048-1.063 2.906-3.45-.142-2.385.166-2.692 1.985-3.283 1.819-.59.897-1.772 1.606-2.93.709-1.157 2.811-1.44 2.882.78.07 2.22-.142 4.04-1.276 4.607-1.134.567-1.18.78-.826 1.842.354 1.064.141 2.245-.567 2.74-.71.497.236 1.087.094 1.843s-.921 1.654-1.89 1.89c-.968.237-5.079.166-5.079.166z" fill="url(#P)" paint-order="stroke markers fill"/><path d="M-258.158 372.784s-.189-1.677.945-2.67c1.134-.991 2.363-1.724 2.575-3.472.213-1.748.544-2.693.59-1.11.048 1.583-.306 3.33-1.535 4.536-1.228 1.204-1.252 2.504-1.157 2.834.094.331-1.418-.118-1.418-.118z" fill="#ff9209" paint-order="stroke markers fill"/><rect ry="0" y="372.671" x="-265.111" height="1.904" width="11.994" fill="url(#Q)"/><path d="M-264.254 374.582l1.57 7.198H-255.544l1.57-7.198h-5.634z" fill="url(#R)"/><path d="M-264.254 374.582l.16.73h9.96l.16-.73h-5.636z" fill="#0038dd"/></g><path d="M-210.956 198.336s-1.53 2.74-4.764 1.376c-3.233-1.363-4.876-.639-4.876-.639l.047-.537c.968-1.92 1.942-3.836 4.175-5.17l1.483-.68s2.303-.395 5.173 2.368c2.87 2.762-1.238 3.282-1.238 3.282z" fill="url(#S)" transform="translate(274.58 -114.473) scale(.9122)"/><g transform="translate(159.733 -246.466) scale(.9122)"><path transform="scale(-1 1)" fill="url(#T)" d="M87.216 342.274h29.93v2.942h-29.93z"/><path d="M-125.351 344.027l8.205-1.753v2.942h-8.205zM-49.988 295.62h-60.397l-3.188 40.29h60.397z" fill="#0038dd"/><path transform="skewX(4.524) scale(1 -.99688)" fill="url(#U)" d="M25.182 296.543h60.397v40.417H25.182z"/><path fill="#042a9b" paint-order="markers stroke fill" d="M-64.298 343.868h-32.245v1.348h32.245z"/><path d="M-60.951 345.05h6.157s.699-.074.104-.877c-.595-.804-2.32-2.652-5.08-2.696-2.76-.044-4.649 1.564-4.988 2.464-.34.9-.235.874-.235.874z" fill="url(#V)"/><path d="M-59.77 341.477c.054 0 .105.006.158.01-.6.72-1.425 2.002-1.34 3.563l-4.04-.235s-.106.027.234-.873c.339-.9 2.228-2.509 4.988-2.465z" fill="#0038dd"/><path d="M-64.434 345.216h-14.15l-6.453-31.892h9.917z" fill="#042a9b"/><path d="M-63.307 345.216h-14.15l-6.453-31.892h9.917z" fill="#0038dd"/><circle cx="81.447" cy="305.415" r="2.599" transform="scale(-1 1) rotate(.38)" fill="#fff"/><path d="M-57.743 295.619l8.08 13.785-1.151 14.562-16.618-28.347zm-11.97 0l18.628 31.772-.61 7.71-23.146-39.482zm-40.08 10.417l17.514 29.874h-9.689l-8.976-15.314zm-1.423 17.986l6.968 11.888h-5.13l-2.448-4.177z" opacity=".1" fill="#fff"/></g><g transform="rotate(1.592 4007.845 9927.304) scale(.9122)" fill="#dc3545"><path d="M-221.723 137.79s-2.308-9.422-1.125-11.994c1.183-2.573 2.607-1.665 2.99.085s.71 11.534-.227 12.405c-.938.872-1.638-.496-1.638-.496z"/><circle r="1.531" cy="141.969" cx="-220.252" paint-order="markers fill stroke"/></g></g></svg>