<svg xmlns="http://www.w3.org/2000/svg" viewBox="0 0 47.625 47.625" height="180" width="180"><rect ry="0" rx="0" y="-.002" x=".003" height="47.625" width="47.625" fill="none" paint-order="markers fill stroke"/><path style="line-height:100%;-inkscape-font-specification:'Open Sans';text-align:start" d="M21.393.558c.147.535.29 1.113.397 1.707.005.021.007.044.01.065a17.798 17.798 0 01.18 1.692c.001.02.006.04.006.06v.016c.003.046.003.091.006.136.004.1.014.2.016.3.002.037-.001.075 0 .114.003.141.006.283.005.425 0 .16-.006.319-.01.478v.055c-.005.14-.014.28-.022.418-.009.14-.015.282-.027.418-.004.043-.012.085-.016.126l-.017.168c-.008.068-.018.136-.027.202-.008.054-.014.11-.023.162a7.893 7.893 0 01-.042.279c-.004.024-.007.051-.012.075-.02.119-.04.233-.065.35-.222 1.05-.517 2.79-1.8 3.29-.042-.003-.084-.001-.125 0h-.006c-.04.002-.081.006-.119.01h-.006c-.039.005-.077.01-.114.017h-.005a1.435 1.435 0 00-.11.027c-.003 0-.006.005-.01.005-.035.01-.071.02-.104.033l-.01.006c-.034.012-.067.022-.099.037-.039.018-.077.04-.114.06-.029.017-.059.03-.087.049l-.015.01a1.583 1.583 0 00-.17.131l-.015.017a1.717 1.717 0 00-.29.33c-.04.061-.08.123-.114.186l-.004.012a1.657 1.657 0 00-.077.169c-.006.015-.015.031-.021.048a2.14 2.14 0 00-.05.158c-.006.021-.01.044-.017.065l-.01.05c-.005.02-.008.043-.01.064a2.304 2.304 0 00-.023.148c-.005.048-.01.096-.01.146v.076c0 .045.005.09.01.136.004.036.006.072.012.108.01.07.028.14.048.208.008.023.013.048.023.07l.015.044v.005c.015.036.033.067.05.104.01.024.019.046.033.07.005.014.013.026.02.038l.044.07.021.039c-.009.05-.024.094-.037.141-.013.012-.026.021-.038.033-.027.024-.051.05-.077.077l-.044.043c-.022.026-.048.053-.07.082l-.042.054c-.021.026-.036.054-.056.081l-.044.065-.048.083-.044.075-.037.082a2.19 2.19 0 00-.07.164c-.014.033-.028.064-.04.098l-.01.037a3.775 3.775 0 00-.038.141l-.017.065c-.007.041-.015.081-.02.12-.004.019-.005.037-.007.055v.022a1.96 1.96 0 00-.01.157c-.002.045-.003.092 0 .137.003.056.012.111.02.169.002.003 0 .007 0 .01l.007.033a1.248 1.248 0 00.098.32l.006.018c.048.106.11.207.19.304.03.046.028.114-.034.152a1.458 1.458 0 00-.369.343 1.563 1.563 0 00-.168.287 2.055 2.055 0 00-.066.152 1.85 1.85 0 00-.028 1.16c.017.054.033.11.055.164.022.05.05.1.076.152.027.05.055.099.088.145.078.165-.005.496-.267.681-.828.787-.445 2.09.402 2.654.175.193-.009 1.031 0 1.557a27.876 27.876 0 00-.141 3.034c.006 3.085.311 4.184 1.79 6.446.668 1.024 1.475 1.767 2.616 2.41.27.15.509.303.533.342.012.02-.006.123-.048.272-.021.074-.051.157-.083.25-.03.094-.065.196-.103.3a14.115 14.115 0 00-.326.962l-.01.033a12.57 12.57 0 00-.12.414c-.004.013-.009.028-.012.043-.033.126-.061.247-.087.359-.027.119-.048.227-.065.327l-.006.016-.01.059a2.753 2.753 0 00-.027.212l-.006.054v.1l.006.037c.003.022.01.04.016.055a.056.056 0 00.028.033c-.004.003-.004.006-.007.01.107.045 2.636.583 3.22.397.017.004.03 0 .04-.006 0 0-.002-.002 0-.005a3.16 3.16 0 00.048-.299v-.006c.012-.1.022-.206.027-.31v-.006c.009-.208.006-.421-.006-.635v-.006c-.023-.43-.078-.866-.113-1.288-.152-1.047-.146-1.215.02-1.268.916-.293 2.292-1.315 3.13-2.323.62-.746 1.07-1.246 1.021-1.294.006-.01.017-.02.017-.027-.476.143-.712.192-1.415.429-4.281 1.419-6.231-1.07-5.733-6.207.714-3.825 2.403-8.019 5.407-13.413.448-.805.817-1.478.817-1.502 0-.022-.258-.23-.573-.467-1.2-.903-1.657-1.8-1.946-3.792-.34-2.176-1.673-6.145-4.26-7.137zm4.961 10.89c.535 0 .962.433.962.968a.964.964 0 11-1.93 0c0-.535.434-.968.968-.968zm-6.614.412a.914.914 0 11-.001 1.829.914.914 0 01.001-1.829zm-.462 2.617a.915.915 0 11-.001 1.829.915.915 0 010-1.83zm-.431 2.616a.913.913 0 11.001 1.826.913.913 0 010-1.826zm-.402 2.828a.914.914 0 110 1.828.914.914 0 010-1.828z" font-weight="400" font-size="17.5" font-family="Open Sans" fill="#8c8c8c"/><path style="line-height:100%;-inkscape-font-specification:'Open Sans';text-align:start" d="M21.658.883a.062.062 0 01.01.012c3.765 5.148 2.302 11.457.643 16.932-1.662 5.459-2.166 7.888-2.17 10.493-.045 2.393 1.136 5.578 3.72 5.609 1.421-.026 2.882-.32 4.34-.882.344-.133.855-.396.877-.375.048.048-.402.548-1.022 1.294-.838 1.008-2.213 2.03-3.129 2.323-.168.054-.173.221-.022 1.268.072.847.218 1.749.043 2.556-.063.047-.405-.214-.81-.473-.404-.26-.77-.468-.81-.468-.04 0-.405.12-.81.272-.406.151-.769.277-.806.277-.206 0 .098-1.362.603-2.714.156-.412.26-.782.235-.822-.024-.039-.263-.19-.533-.342-1.14-.642-1.948-1.386-2.616-2.41-1.478-2.262-1.784-3.36-1.79-6.445-.003-1.137.043-2.13.142-3.035-.01-.525.174-1.364 0-1.557-.848-.564-1.23-1.866-.404-2.654.264-.185.345-.516.268-.68-.518-.757-.357-1.9.413-2.404.061-.038.064-.105.033-.152-.663-.8-.211-2.088.478-2.596-.827-1.11.015-2.878 1.41-2.816 1.282-.5 1.576-2.24 1.8-3.29.373-1.82.343-4.071-.083-6.19-.056-.261-.168-.678-.278-1.057zm-1.91 10.852a1.045 1.045 0 10.002 2.091 1.045 1.045 0 00-.001-2.09zm-.472 2.617a1.044 1.044 0 100 2.088 1.044 1.044 0 000-2.088zm-.424 2.626a1.045 1.045 0 100 2.091 1.045 1.045 0 000-2.09zm-.408 2.824a1.044 1.044 0 10-.002 2.088 1.044 1.044 0 00.002-2.088z" font-weight="400" font-size="17.5" font-family="Open Sans" fill="#535353"/><path style="line-height:100%;-inkscape-font-specification:'Open Sans';text-align:start" d="M8.263 37.06c-2.675-.535-4.773-2.182-6.296-4.94a10.842 10.842 0 01-.827-3.01 10.949 10.949 0 01.125-3.21 8.568 8.568 0 011.154-2.935c.786-1.388 1.772-2.432 2.96-3.134 1.186-.72 2.682-1.28 4.489-1.682.534-.115.962-.166 1.28-.15.317.017.609.11.877.277.284.184.475.376.576.577.101.2.085.35-.05.451-.083.066-.175.142-.276.226-.25.116-.669.309-1.254.576a23.92 23.92 0 00-1.304.652c-.3.15-.677.351-1.129.602-.452.25-.852.518-1.203.803-.352.285-.686.593-1.004.927-.77.837-1.287 1.915-1.555 3.237a12.057 12.057 0 00-.125 3.861c.101.72.35 1.422.753 2.107.417.685.936 1.163 1.555 1.43.568.284 1.146.45 1.73.502.602.033 1.138-.042 1.606-.226a4.597 4.597 0 001.33-.778c.4-.335.7-.727.9-1.179.219-.452.353-.927.403-1.429.05-.519-.043-1.053-.276-1.606-.385-.468-1.063-.835-2.032-1.103-.97-.285-1.654-.285-2.056 0-.2.117-.309.402-.327.854-.016.383.118.651.402.802.301.15.626.193.979.125.367-.067.677-.193.927-.377.251-.15.493-.108.727.127.251.217.376.459.376.727-.017.384-.191.71-.527.978-.317.25-.71.426-1.178.526-1.137.185-2.09-.25-2.859-1.304-.669-.936-.92-1.898-.753-2.884.15-.953.687-1.539 1.605-1.755 2.743-.085 4.916.701 6.521 2.357.67.652 1.08 1.47 1.23 2.458.15.97.017 1.856-.402 2.659-.736 1.22-1.764 2.232-3.084 3.034-1.306.82-2.635 1.095-3.988.827M32.282 15.32c-.773 0-1.396.713-1.396 1.588 0 .874.623 1.583 1.396 1.583.774 0 1.405-.709 1.405-1.583 0-.875-.631-1.588-1.405-1.588zm-.678 4.19c-.219.016-.407.137-.56.357-.318.435-.558 1.612-.724 3.536-.067.803-.13 1.369-.18 1.703a54.48 54.48 0 01-.147 2.762c-.017.352-.012.783.022 1.3.034.519.101 1.116.2 1.785.101.668.237 1.287.404 1.854a7.32 7.32 0 00.701 1.557c.302.468.654.758 1.056.874.418.118.9.05 1.452-.2.116-.15.173-.265.173-.35-.334-3.242-.541-6.288-.624-9.13-.017-.62-.017-1.035 0-1.251.016-.219.031-.363.048-.43.016-.067.012-.197-.021-.399-.017-.216-.07-.626-.152-1.228a7.116 7.116 0 01-.175-.805 4.187 4.187 0 00-.179-.724c-.051-.2-.15-.46-.3-.777-.385-.312-.715-.46-.994-.435zM37.338 17.825c.284 0 .726-.017 1.329-.052a27.13 27.13 0 011.38-.05c1.572 0 2.842.351 3.812 1.054 1.354.97 2.03 2.141 2.03 3.511 0 1.138-.492 2.183-1.478 3.135.05.034.175.083.375.151.201.066.343.118.427.15.1.033.243.109.427.226.2.118.367.243.5.377.135.134.285.317.452.55.184.235.35.502.502.803.15.503.225.995.225 1.48 0 .753-.183 1.472-.55 2.157a5.797 5.797 0 01-1.381 1.73c-.567.486-1.203.92-1.906 1.305a13.32 13.32 0 01-2.056.877 10.8 10.8 0 01-1.906.402c-.218.034-.428.05-.628.05-.652 0-1.22-.193-1.705-.577-.468-.385-.845-.92-1.13-1.604a11.604 11.604 0 01-.6-2.333 20.64 20.64 0 01-.176-2.81c0-1.972.2-3.97.602-5.994.419-2.023.903-3.536 1.455-4.538m6.245 12.84c.836-.887 1.254-1.672 1.254-2.357 0-.367-.176-.687-.527-.953-.334-.285-.694-.426-1.079-.426a.928.928 0 00-.224.024c-1.44.887-2.585 1.849-3.437 2.884-.033.318-.05.611-.05.878 0 .519.083 1.171.25 1.957.084.1.21.15.376.15.386 0 .946-.251 1.68-.753.753-.517 1.339-.985 1.757-1.404m-3.312-5.442c.134-.134.419-.393.854-.778.435-.4.753-.701.953-.903.2-.217.426-.51.677-.878.268-.384.468-.77.602-1.153.017-.418-.176-.795-.576-1.13a3.518 3.518 0 00-1.254-.752c-.435-.167-.795-.25-1.08-.25h-.025c-.2.217-.393.81-.577 1.781-.167.97-.25 1.873-.25 2.708 0 1.003.133 1.506.4 1.506.085 0 .177-.051.276-.15" font-weight="400" font-size="17.5" font-family="Open Sans" fill="#dc3535"/><path style="line-height:100%;-inkscape-font-specification:'Open Sans';text-align:start" d="M5.213 44.153c0 .822.479 1.319 1.206 1.319.274 0 .548-.074.816-.164v-1.096h-.67v.26h.322v.663a1.698 1.698 0 01-.464.076.794.794 0 01-.569-.212c-.218-.215-.26-.537-.26-.846 0-.312.042-.635.26-.849.15-.146.351-.212.58-.212.259 0 .533.087.8.18v-.287a2.418 2.418 0 00-.8-.154c-.74 0-1.221.49-1.221 1.325zM8.752 45.409v-2.05l1.274 2.05h.346v-2.514h-.288v2.053l-1.273-2.053h-.346v2.514zM13.658 44.448v-1.553h-.346v1.615c0 .202 0 .406-.156.552a.681.681 0 01-.452.15.665.665 0 01-.447-.15c-.16-.146-.16-.35-.16-.552v-1.615h-.346v1.553c0 .298 0 .596.245.808.185.155.449.216.708.216.26 0 .524-.06.707-.22.247-.208.247-.506.247-.804zM15.727 42.776h-.282l-.69 3.08h.282zM18.408 45.409v-.26h-1.242v-2.254h-.348v2.514zM19.854 43.224v-.33h-.33v.33zm0 2.185V43.57h-.33v1.839zM22.305 44.206v1.203h.33v-1.141c0-.317.003-.74-.463-.74-.263 0-.484.136-.651.338v-.296h-.33v1.839h.33v-1.256c.118-.212.298-.375.527-.375.247 0 .257.188.257.428zM24.3 44.767V43.57h-.33v1.134c0 .292-.01.747.471.747.253 0 .471-.133.641-.333v.29h.33V43.57h-.33v1.26c-.12.211-.3.374-.523.374-.26 0-.26-.218-.26-.434zM28.165 45.409l-.641-.902.652-.937h-.322l-.493.708-.496-.708h-.33l.625.884-.663.955h.323l.502-.721.513.72zM32.05 44.087c.403-.086.562-.336.562-.565a.587.587 0 00-.229-.462c-.215-.165-.502-.165-.79-.165h-.608v2.514h.624c.317 0 .633 0 .865-.174a.567.567 0 00.226-.465c0-.27-.184-.58-.65-.683zm-.72.128h.207c.226 0 .45.004.631.16.112.1.18.233.18.382a.335.335 0 01-.135.287c-.135.104-.327.104-.513.104h-.37zm0-.26v-.802h.346c.167 0 .333 0 .454.098.094.077.131.181.131.274a.379.379 0 01-.152.301c-.156.13-.35.13-.548.13zM35.105 44.489c0 .209-.013.43-.16.584a.433.433 0 01-.316.13.432.432 0 01-.314-.13c-.146-.154-.16-.375-.16-.584 0-.208.014-.43.16-.583a.432.432 0 01.314-.13c.12 0 .237.045.317.13.146.154.16.375.16.583zm-.476-.96c-.509 0-.838.382-.838.96 0 .587.333.962.838.962.508 0 .84-.378.84-.962 0-.583-.337-.96-.84-.96zM37.294 44.608c-.313 0-.383-.178-.383-.417 0-.19.043-.416.383-.416.305 0 .385.18.385.416 0 .233-.063.417-.385.417zm-.747-.417c0 .215.105.433.309.558a.371.371 0 00-.131.279c0 .287.316.356.513.394l.325.063c.056.01.265.035.265.176 0 .147-.201.174-.417.174-.263 0-.558-.038-.846-.118v.288c.25.066.514.08.673.08.455 0 .915-.09.915-.448 0-.308-.298-.377-.5-.415l-.322-.063c-.194-.04-.34-.072-.34-.2 0-.05.021-.095.059-.13.08.02.16.032.244.032.527 0 .745-.357.745-.666 0-.18-.073-.35-.2-.475a.597.597 0 01.283-.062v-.25a.587.587 0 00-.437.205.876.876 0 00-.396-.08c-.561 0-.745.391-.745.662zM40.47 44.489c0 .209-.014.43-.16.584a.432.432 0 01-.314.13.433.433 0 01-.316-.13c-.146-.154-.16-.375-.16-.584 0-.208.014-.43.16-.583a.433.433 0 01.316-.13c.117 0 .235.045.315.13.145.154.16.375.16.583zm-.474-.96c-.51 0-.84.382-.84.96 0 .587.333.962.84.962.506 0 .838-.378.838-.962 0-.583-.335-.96-.838-.96zM43.166 43.848v-.305c-.066-.015-.132-.015-.164-.015-.287 0-.503.165-.628.393v-.35h-.328v1.838h.328v-1.134a.63.63 0 01.598-.452c.062 0 .128.011.194.025z" font-weight="400" font-size="17.5" font-family="Open Sans"/></svg>