<svg xmlns="http://www.w3.org/2000/svg" viewBox="0 0 47.625 47.625" height="180" width="180"><rect ry="0" rx="0" y="-.002" x=".003" height="47.625" width="47.625" fill="none" paint-order="markers fill stroke"/><g fill="#306db3" stroke-width="13.119"><path d="M11.876 15.938c-3.276 0-3.89 4.665-2.048 4.665 1.843 0 5.323-4.665 2.048-4.665zM6.437 20.025c.98.06 2.057-3.744.213-3.505-1.843.24-1.195 3.445-.213 3.505zM1.94 22.39c.698-.308.09-3.312-1.096-2.493-1.186.82.399 2.8 1.096 2.492zM3.906 20.817c.831-.17.877-3.577-.605-2.966-1.481.612-.225 3.135.605 2.966zM8.244 28.442c.147 1.125-.826 1.681-1.779.956-3.034-2.31 5.024-3.463 4.493-6.618-.441-2.62-8.478-1.813-9.394 2.285-.62 2.772 2.55 6.618 5.858 6.618 1.627 0 3.503-1.469 3.854-3.33.269-1.419-3.155-.85-3.032.089z"/><g font-family="Bitstream Vera Sans"><path style="line-height:125%;text-align:start" d="M28.608 20.247c-.825.022-1.476.318-1.956.887-.496.592-.745 1.409-.745 2.452 0 1.04.25 1.855.745 2.446.499.592 1.183.887 2.056.887.876 0 1.562-.295 2.058-.887.496-.591.744-1.407.744-2.446 0-1.043-.248-1.86-.744-2.452-.496-.592-1.182-.887-2.058-.887h-.1zm.061 1.2h.04c.43 0 .763.187 1 .56.235.374.354.9.354 1.579 0 .675-.119 1.198-.355 1.571s-.57.561-1 .561c-.428 0-.758-.188-.994-.561-.236-.373-.355-.896-.355-1.571 0-.678.119-1.205.355-1.579.228-.361.546-.548.955-.56zM19.29 26.316c-.727.61-1.808.604-2.258.604-.907 0-1.626-.3-2.156-.897-.53-.6-.795-1.413-.795-2.438 0-1.037.27-1.853.81-2.447.54-.595 1.279-.892 2.217-.892.363 0 .71.04 1.04.12.333.081.647.2.941.358l-.378 1.117a3.847 3.847 0 00-.53-.242c-.3-.1-.6-.15-.901-.15-.56 0-.991.184-1.295.555-.302.367-.452.895-.452 1.58 0 .682.146 1.207.437 1.578.292.37.73.556 1.244.556.522 0 .845-.132 1.017-.27v-1.113h-1.13v-1.112h2.189M20.25 20.362h.886l2.8 3.866v-3.866h1.194v6.433h-.886l-2.8-3.866v3.866H20.25v-6.433M32.432 20.362h1.787l1.24 4.016 1.248-4.016h1.51l.683 6.433h-1.328l-.41-4.023-1.254 4.042h-.89l-1.255-4.178-.41 4.159h-1.33l.682-6.433M39.858 20.362h3.79v1.254h-2.385v1.334h1.834v1.117h-1.834v1.474h2.465v1.254h-3.87v-6.433" font-weight="700" font-size="148.7"/><text y="1215.743" x="4474.618" font-weight="400" font-size="30.69" stroke-width="17.492" transform="matrix(.0546 0 0 .0546 -199.408 -46.059)"><tspan y="1215.743" x="4474.618" letter-spacing="11.063"><tspan letter-spacing=".252">TM</tspan></tspan></text></g><text y="352.474" x="633.528" style="line-height:75.1872px;-inkscape-font-specification:'Open Sans Bold';font-variant-ligatures:normal;font-variant-position:normal;font-variant-caps:normal;font-variant-numeric:normal;font-variant-alternates:normal;font-feature-settings:normal;text-indent:0;text-align:start;text-decoration-line:none;text-decoration-style:solid;text-decoration-color:#000;text-transform:none;text-orientation:mixed;white-space:normal;shape-padding:0" font-weight="700" font-size="72.909" font-family="Open Sans" letter-spacing="0" word-spacing="0" fill-rule="evenodd" stroke-width="74.374" stroke-linecap="round" stroke-linejoin="round" paint-order="markers stroke fill" transform="matrix(.04222 0 0 .04222 -.332 15.19)"><tspan y="352.474" x="633.528">INDONESIA</tspan></text></g></svg>