<svg xmlns="http://www.w3.org/2000/svg" width="180" height="180" viewBox="0 0 47.625 47.625"><rect paint-order="markers fill stroke" fill="none" width="47.625" height="47.625" x=".003" y="-.002" rx="0" ry="0"/><path d="M19.453 5.145l-5.497.526v22.634l5.439-.819v-9.65l7.31 10.704 5.731-1.814-7.485-10.293 7.544-9.709-5.848-1.344-7.252 9.708zm-12.46 5.516a.279.279 0 00-.169.08l-2.157 2.157a.28.28 0 00-.04.342l2.525 4.16a10.796 10.796 0 00-1.064 2.422l-4.637.965a.28.28 0 00-.222.273v3.05c0 .13.089.241.213.271l4.5 1.1c.24.993.613 1.933 1.104 2.798L4.441 32.25a.279.279 0 00.036.35l2.157 2.158c.09.09.232.108.343.042l4.082-2.48c.802.463 1.667.827 2.58 1.074l.953 4.58c.027.13.142.222.273.222h3.051c.129 0 .24-.088.271-.214l1.122-4.589a10.752 10.752 0 002.655-1.117l4.023 2.638c.11.073.257.058.35-.036l2.158-2.156a.278.278 0 00.04-.343l-1.468-2.42-.475.15a.164.164 0 01-.186-.064l-2.146-3.142a8.741 8.741 0 11-11.368-11.946v-2.255a10.77 10.77 0 00-1.597.704l-.003-.002-4.117-2.701a.28.28 0 00-.182-.044z" fill="#1d99f3"/><path d="M33.789 25.62v10.023h2.119V25.62zm3.866 0v10.023h3.553c3.054 0 4.904-1.889 4.904-5.02 0-3.123-1.85-5.003-4.875-5.003zm2.12 1.816h1.35c1.879 0 2.873.96 2.873 3.186 0 2.237-.994 3.206-2.878 3.206h-1.346z" style="line-height:1.25;-inkscape-font-specification:'Inter Bold'" font-weight="700" font-size="13.781" font-family="Inter" letter-spacing="0" word-spacing="0" fill="#1d99f3"/></svg>